<svg width="20" height="19" viewBox="0 0 20 19" fill="none" xmlns="http://www.w3.org/2000/svg">
<path d="M12 0C12.7956 0 13.5587 0.316071 14.1213 0.87868C14.6839 1.44129 15 2.20435 15 3V4H17C17.7956 4 18.5587 4.31607 19.1213 4.87868C19.6839 5.44129 20 6.20435 20 7V16C20 16.7956 19.6839 17.5587 19.1213 18.1213C18.5587 18.6839 17.7956 19 17 19H3C2.20435 19 1.44129 18.6839 0.87868 18.1213C0.316071 17.5587 0 16.7956 0 16V7C0 6.20435 0.316071 5.44129 0.87868 4.87868C1.44129 4.31607 2.20435 4 3 4H5V3C5 2.20435 5.31607 1.44129 5.87868 0.87868C6.44129 0.316071 7.20435 0 8 0H12ZM12 2H8C7.73478 2 7.48043 2.10536 7.29289 2.29289C7.10536 2.48043 7 2.73478 7 3V4H13V3C13 2.73478 12.8946 2.48043 12.7071 2.29289C12.5196 2.10536 12.2652 2 12 2Z" fill="white"/>
</svg>
