<svg width="210" height="244" viewBox="0 0 210 244" fill="none" xmlns="http://www.w3.org/2000/svg">
<path d="M45.07 0.216577C41.5151 0.788635 37.1429 2.3005 33.5063 4.18012C23.4544 9.36951 12.8304 20.6064 9.56154 29.5141C8.49915 32.4153 8.37656 33.2325 8.37656 37.6455C8.37656 42.0994 8.45829 42.7532 9.47982 44.878C10.0519 46.1447 11.3186 47.9834 12.2175 49.005C13.9746 50.9254 18.1015 53.3771 19.5726 53.3771C20.0629 53.3771 20.4306 53.5406 20.4306 53.7449C20.4306 53.99 19.2457 56.5643 17.7747 59.5472C14.9552 65.2678 14.6283 66.7796 15.9359 68.0872C16.9574 69.1087 19.2457 69.1904 20.1038 68.1689C20.4306 67.8012 21.9425 65.0226 23.4135 62.0397C30.932 46.9619 41.8011 32.4561 51.3626 24.7334C72.0384 8.14367 103.992 13.4148 118.498 35.8885L120.05 38.2176L118.457 39.9338C117.599 40.8736 116.169 43.1209 115.27 44.9597C111.143 53.2954 110.857 61.8354 114.452 68.9453L115.719 71.4787L114.248 75.81C111.51 84.1457 111.347 92.9717 113.88 100.94C115.474 106.006 118.579 111.85 121.235 114.71L122.175 115.731L119.519 118.101C113.349 123.577 108.119 131.953 105.3 141.025C103.338 147.317 102.807 150.831 102.766 157.614V163.989L104.074 166.481L105.381 169.015H95.1659H84.9915L86.2582 166.849C92.5917 156.143 96.024 141.556 96.024 125.497C96.024 119.45 95.6154 117.366 94.3896 116.712C93.2455 116.099 91.6927 116.222 90.7529 116.998C89.9766 117.693 89.8948 118.265 89.7314 126.723C89.3636 144.048 86.3808 155.408 79.5569 165.868L77.473 169.015H69.8319H62.15L61.864 166.685C61.7005 165.378 61.7005 159.698 61.864 154.1C62.2317 139.349 63.4984 128.725 65.5824 122.106C66.6856 118.592 66.4405 117.243 64.52 116.549C61.7414 115.568 60.4747 117.08 58.922 123.454C56.7972 131.913 55.8574 142.169 55.8165 157.247L55.7757 169.015H49.9734H44.1302L42.8635 167.298C39.6763 162.926 36.8977 155.98 35.4676 148.911C34.6912 144.947 34.5278 143.068 34.5686 135.508C34.5686 129.338 34.773 125.579 35.2633 122.923C35.9171 119 35.8762 118.265 34.8138 116.998C34.1192 116.222 32.2396 116.058 31.0546 116.712C29.5836 117.529 28.6846 122.474 28.3169 132.239C27.8265 145.438 30.1556 157.369 34.9364 166.032C35.7128 167.462 36.3665 168.729 36.3665 168.81C36.3665 169.301 26.519 168.933 24.149 168.402C15.8133 166.399 8.98948 159.453 7.069 150.954C6.08833 146.623 6.08833 127.377 7.069 119.164C8.66259 105.925 11.482 92.89 15.1187 82.2252C16.6714 77.6079 16.7123 76.1777 15.2821 75.0745C12.4627 72.868 10.9508 74.5841 8.45829 82.7972C2.81943 101.512 0 119.532 0 136.489C0.0408613 152.956 2.0022 159.576 8.98948 166.563C12.5036 170.077 15.9768 172.243 20.6349 173.836L23.9039 174.939H101.745H179.585L182.241 173.673C185.51 172.12 188.33 169.382 189.882 166.236C190.904 164.152 191.027 163.376 191.149 159.208C191.313 153.365 190.414 147.195 189.229 146.01C188.207 144.947 186.205 144.947 185.061 145.969C184.284 146.663 184.244 147.031 184.448 149.197C184.57 150.545 184.816 153.937 184.938 156.756C185.224 162.558 184.856 163.866 182.16 166.44C179.994 168.524 178.033 169.015 171.577 169.015H165.897L166.673 167.012C168.635 162.068 169.493 152.997 168.635 145.969C168.062 141.597 165.774 139.962 163.2 142.169L162.097 143.109L162.587 147.93C163.363 155.285 162.424 162.15 159.972 166.931L158.95 169.015H154.456H149.961V156.143V143.231L148.939 142.25C147.673 140.943 146.12 140.943 144.853 142.25L143.832 143.231V156.143V169.015H139.337H134.842L133.984 167.298C131.369 162.15 130.388 155.653 131.165 148.339C131.573 144.171 131.573 143.517 131.001 142.659C129.816 140.861 127.201 140.82 126.057 142.577C125.24 143.844 124.504 151.812 124.831 155.939C125.158 159.943 126.016 164.275 127.119 167.053L127.896 169.015H122.216C115.76 169.015 113.799 168.524 111.633 166.44C109.263 164.152 108.609 162.436 108.65 158.309C108.732 148.339 112.001 137.633 117.354 129.91C119.56 126.723 123.687 122.269 125.567 121.003C126.588 120.349 126.67 120.349 128.795 121.942C133.657 125.62 140.277 128.398 146.365 129.379C148.367 129.706 151.595 129.829 155.15 129.665C161.116 129.461 165.12 128.562 170.228 126.315L172.557 125.293L173.579 126.192C174.927 127.459 178.686 133.22 179.912 135.835C181.302 138.777 182.119 139.594 183.712 139.594C185.183 139.594 186.736 138.083 186.736 136.612C186.736 135.386 182.813 128.153 180.362 124.884L178.155 121.942L181.751 118.428C188.248 111.972 191.721 105.516 193.846 95.7911C194.009 95.0148 194.745 94.361 196.42 93.4212C202.713 89.8662 207.167 83.165 208.638 75.0336C210.027 67.27 209.169 63.8785 205.042 61.0999C197.973 56.2783 189.433 54.5621 182.16 56.4009L179.463 57.0955L177.256 55.461C170.841 50.5577 160.953 47.4931 152.29 47.6974L148.286 47.82L147.141 46.3898C145.997 45.0414 145.957 44.8371 145.752 38.8714C145.507 31.9249 144.894 28.9421 142.688 24.4065C139.95 18.7676 135.128 14.9675 128.836 13.4965C123.605 12.2707 114.003 13.2513 107.506 15.6621C106.771 15.9482 105.831 15.6621 103.011 14.2729C95.5337 10.5136 89.5271 9.12434 80.0064 9.04262L72.774 8.96089L70.1997 7.04041C66.9716 4.58874 61.9866 2.17792 58.023 1.07466C54.5907 0.134855 48.2572 -0.273758 45.07 0.216577ZM56.5112 6.99955C58.922 7.61247 65.092 10.4728 64.7651 10.7997C64.6834 10.8814 63.3759 11.4126 61.9048 11.9029C54.795 14.3954 48.2163 18.7267 41.8828 25.0602C37.5924 29.3507 31.5449 36.8283 27.4588 42.8349C24.2307 47.5748 23.4952 48.106 20.6349 47.2888C17.3252 46.3898 14.7101 43.0392 14.0971 39.0348C13.2799 33.5594 18.0198 24.6108 25.4566 17.5418C32.2804 11.0857 39.0225 7.40816 46.3776 6.22319C48.4615 5.8963 54.0186 6.30491 56.5112 6.99955ZM128.55 19.6666C134.924 21.5462 139.051 27.9205 139.623 36.7874C139.868 40.2606 139.827 40.4241 139.092 40.1381C135.619 38.7896 132.023 37.809 129.571 37.6047C126.956 37.3595 126.547 37.196 125.934 36.2562C122.666 30.9034 120.214 27.6754 116.986 24.4065C114.902 22.2817 113.227 20.4838 113.308 20.4429C113.39 20.3612 114.534 20.0343 115.883 19.7074C119.152 18.931 125.975 18.8902 128.55 19.6666ZM134.188 44.9188C136.885 45.9404 141.625 48.8007 141.217 49.2093C141.094 49.291 139.541 49.9856 137.784 50.6803C131.573 53.2137 125.853 57.4224 121.317 62.8978L119.356 65.2269L118.702 63.1021C117.19 57.9127 118.334 51.6609 121.889 45.6543L123.197 43.4887L127.283 43.693C130.307 43.8156 132.105 44.1425 134.188 44.9188ZM161.811 54.8481C167.858 56.36 174.805 60.5278 178.809 64.9409C185.102 71.8873 188.125 79.8144 188.085 89.1307C188.044 95.2191 187.145 98.9783 184.284 104.74C180.076 113.28 171.536 120.226 162.26 122.637C155.355 124.435 148.694 124.231 142.197 122.024C125.689 116.467 115.474 99.3869 118.661 82.7155C121.521 67.9237 132.758 56.932 147.795 54.1943C150.615 53.6631 158.705 54.0309 161.811 54.8481ZM194.091 62.6526C196.625 63.3473 199.853 64.8591 201.773 66.3301C202.999 67.2291 203.081 67.4743 203.081 69.6399C203.04 75.4831 200.751 81.4488 197.033 85.2081L194.786 87.4963L194.5 86.2705C194.336 85.5758 193.969 83.6145 193.723 81.8574C192.824 76.096 189.882 69.1496 186.287 64.3688L184.652 62.1623L186.205 61.9171C188.248 61.5902 191.272 61.8763 194.091 62.6526Z" fill="#FFC000"/>
<path d="M131.655 74.0939C130.715 74.9111 129.53 78.5478 129.53 80.6317C129.53 83.206 132.431 84.5544 134.352 82.8791C135.21 82.1844 136.477 78.1392 136.477 76.1778C136.477 74.9111 134.883 73.3992 133.535 73.3992C132.963 73.3992 132.105 73.7261 131.655 74.0939Z" fill="#FFC000"/>
<path d="M175.826 85.0448C174.764 85.4943 174.437 85.9846 173.865 87.9868C173.497 89.2944 173.088 90.6837 173.007 91.0923C172.353 93.2579 174.927 95.5053 177.093 94.6881C178.278 94.1977 178.932 92.9719 179.831 89.417C180.321 87.4556 180.28 87.2105 179.545 86.1889C178.441 84.7588 177.338 84.391 175.826 85.0448Z" fill="#FFC000"/>
<path d="M164.383 101.387C164.749 101.098 165.233 100.318 165.473 99.7027C167.392 94.3346 161.541 88.1287 155.914 89.6033C154.323 90.0244 154.078 89.9855 153.131 89.094C148.767 85.0013 141.264 87.0218 139.634 92.7145C139.196 94.1482 139.239 94.4747 139.982 95.4496C141.469 97.3993 144.327 97.1316 145.209 94.918C146.451 91.8844 149.481 92.5961 149.507 95.9057C149.537 99.7466 153.959 100.815 155.402 97.2895C156.083 95.5679 157.346 95.0676 158.701 95.9559C159.523 96.4806 159.731 96.9693 159.743 98.4403C159.753 99.7478 160.004 100.522 160.581 101.09C161.528 102.022 163.368 102.13 164.383 101.387Z" fill="#FFC000"/>
<path d="M53.6507 37.5231C52.6701 38.0135 52.2206 38.9533 51.3216 42.4674C50.4635 45.9814 51.3216 47.6567 53.9368 47.6567C55.8572 47.6567 56.5519 46.8804 57.3691 43.7341C58.3089 40.0974 58.2272 38.8716 56.9605 37.8909C55.7755 36.9511 54.9992 36.8694 53.6507 37.5231Z" fill="#FFC000"/>
<path d="M101.459 50.5985C100.968 51.1297 100.314 52.8867 99.865 54.7255C99.1703 57.8309 99.1703 57.9127 99.9876 59.0159C100.519 59.7105 101.254 60.16 102.071 60.2417C104.033 60.4461 105.177 59.0159 106.076 55.2975C106.811 52.1921 106.771 52.1103 105.953 51.0071C104.85 49.4952 102.684 49.2909 101.459 50.5985Z" fill="#FFC000"/>
<path d="M78.3665 227.448L78.4305 228.92C78.4305 230.584 78.0678 232.035 77.3425 233.272H71.8385L71.3905 243.256C70.6652 243.427 69.6838 243.512 68.4465 243.512C67.2092 243.512 66.0785 243.448 65.0545 243.32L64.6065 233.272H47.0065C46.1532 232.035 45.7265 230.733 45.7265 229.368C45.7265 229.027 45.7692 228.771 45.8545 228.6L62.1745 200.44H72.5425C72.5425 200.611 72.3505 209.592 71.9665 227.384L78.3665 227.448ZM64.4785 227.32L64.0305 211.256L54.4945 227.448C56.7132 227.448 60.0412 227.405 64.4785 227.32Z" fill="#FFC000"/>
<path d="M95.917 199.672C101.208 199.672 105.069 201.208 107.501 204.28C109.933 207.309 111.149 211.64 111.149 217.272C111.149 222.861 109.933 227.341 107.501 230.712C105.069 234.083 101.186 235.768 95.853 235.768C90.5197 235.768 86.701 234.275 84.397 231.288C82.093 228.259 80.941 223.693 80.941 217.592C80.941 205.645 85.933 199.672 95.917 199.672ZM92.653 229.24C93.549 229.709 94.637 229.944 95.917 229.944C97.197 229.944 98.2637 229.709 99.117 229.24C100.013 228.771 100.674 228.195 101.101 227.512C101.57 226.829 101.933 225.869 102.189 224.632C102.53 223.011 102.701 220.643 102.701 217.528C102.701 209.507 100.44 205.496 95.917 205.496C94.6797 205.496 93.613 205.752 92.717 206.264C91.821 206.776 91.1383 207.373 90.669 208.056C90.1997 208.739 89.837 209.656 89.581 210.808C89.2397 212.344 89.069 214.179 89.069 216.312C89.069 218.403 89.0903 219.981 89.133 221.048C89.2183 222.072 89.3677 223.224 89.581 224.504C89.837 225.741 90.1997 226.723 90.669 227.448C91.1383 228.131 91.7997 228.728 92.653 229.24Z" fill="#ED6E9F"/>
<path d="M144.771 227.448L144.835 228.92C144.835 230.584 144.472 232.035 143.747 233.272H138.243L137.795 243.256C137.07 243.427 136.088 243.512 134.851 243.512C133.614 243.512 132.483 243.448 131.459 243.32L131.011 233.272H113.411C112.558 232.035 112.131 230.733 112.131 229.368C112.131 229.027 112.174 228.771 112.259 228.6L128.579 200.44H138.947C138.947 200.611 138.755 209.592 138.371 227.384L144.771 227.448ZM130.883 227.32L130.435 211.256L120.899 227.448C123.118 227.448 126.446 227.405 130.883 227.32Z" fill="#00E096"/>
<path d="M83.9642 73.819C84.3459 73.5518 84.8746 72.8011 85.1503 72.2013C87.3784 66.9538 81.8978 60.4182 76.1941 61.563C74.582 61.8909 74.3392 61.8378 73.4458 60.8927C69.3275 56.5532 61.7199 58.1339 59.7611 63.7222C59.2403 65.128 59.2647 65.4565 59.9499 66.4729C61.3204 68.5057 64.1894 68.4047 65.1982 66.2462C66.6153 63.29 69.4318 65.4822 69.4318 65.4822C69.4318 65.4822 72.9537 66.5892 75.2365 67.2064C76.5482 67.5611 77.3063 67.1013 78.6078 68.0669C79.3973 68.6386 79.5767 69.1385 79.5027 70.6077C79.437 71.9136 79.6428 72.7013 80.1854 73.3014C81.0767 74.2873 82.907 74.5022 83.9642 73.819Z" fill="#FFC000"/>
<path d="M70.8169 54.4741C72.286 52.8592 74.1673 54.4134 76.3029 54.8664C78.2225 55.2737 80.3943 54.9225 81.1831 56.7193C81.7382 57.9836 81.4779 59.2703 80.4347 60.1748C79.366 61.1014 70.4243 59.9605 70.1042 57.4307C69.955 56.2524 70.0177 55.3526 70.8169 54.4741Z" fill="#FFC000"/>
<path d="M72.5 61.5L74 58.5L76.5 59L76 62.5L72.5 61.5Z" fill="#FFC000"/>
<path d="M40 57.5C39.6507 54.269 46.5002 52.5 46.5002 52.5C46.5002 52.5 48.1864 58.405 45.5001 60C42.8721 61.5604 40.3285 60.5386 40 57.5Z" fill="#389BF2" stroke="#389BF2"/>
<path d="M122.013 91C121.664 87.769 128.513 86 128.513 86C128.513 86 130.199 91.905 127.513 93.5C124.885 95.0604 122.341 94.0386 122.013 91Z" fill="#389BF2" stroke="#389BF2"/>
</svg>
