<svg width="543" height="556" viewBox="0 0 543 556" fill="none" xmlns="http://www.w3.org/2000/svg">
<path d="M137.592 34.4914C167.425 26.3247 229.092 22.0915 269.092 70.4915C297.592 43.3248 383.092 -8.00848 464.092 62.9915C532.092 138.825 585.592 335.992 269.092 524.992C129.592 467.992 -43.5 223 58.5918 108.991" stroke="#FFBC00" stroke-width="54" stroke-linecap="round"/>
<mask id="path-2-inside-1_123_508" fill="white">
<ellipse cx="326.152" cy="189.1" rx="44.2731" ry="58.8105" transform="rotate(19.2011 326.152 189.1)"/>
</mask>
<path d="M322.633 187.874C320.391 194.311 316.944 197.704 315.319 198.793C314.593 199.279 314.814 198.931 316.164 198.69C317.663 198.422 320.012 198.409 322.597 199.309L291.024 289.968C319.963 300.047 348.23 292.3 368.76 278.543C389.268 264.8 404.852 243.683 413.292 219.447L322.633 187.874ZM322.597 199.309C325.182 200.209 327.014 201.679 328.023 202.82C328.93 203.847 328.887 204.257 328.621 203.425C328.023 201.562 327.43 196.763 329.672 190.325L239.012 158.752C230.572 182.988 229.667 209.218 237.202 232.726C244.744 256.26 262.084 279.89 291.024 289.968L322.597 199.309ZM329.672 190.325C331.914 183.888 335.36 180.496 336.985 179.407C337.711 178.92 337.49 179.269 336.141 179.51C334.642 179.777 332.292 179.791 329.708 178.891L361.281 88.231C332.341 78.1526 304.074 85.8997 283.544 99.6566C263.036 113.399 247.453 134.516 239.012 158.752L329.672 190.325ZM329.708 178.891C327.123 177.99 325.29 176.52 324.282 175.38C323.374 174.353 323.417 173.942 323.684 174.774C324.281 176.637 324.874 181.437 322.633 187.874L413.292 219.447C421.732 195.211 422.638 168.981 415.103 145.473C407.56 121.94 390.22 98.3094 361.281 88.231L329.708 178.891Z" fill="#FFBC00" mask="url(#path-2-inside-1_123_508)"/>
<mask id="path-4-inside-2_123_508" fill="white">
<ellipse cx="228.705" cy="187.179" rx="44.2731" ry="58.8105" transform="rotate(-13.4558 228.705 187.179)"/>
</mask>
<path d="M223.135 188.511C224.63 194.759 223.572 199.027 222.981 200.387C222.728 200.967 222.878 200.316 224.112 199.175C225.461 197.925 227.734 196.47 230.755 195.747L254.024 293.002C284.574 285.693 304.625 263.384 314.675 240.289C324.714 217.218 326.453 190.583 320.39 165.242L223.135 188.511ZM230.755 195.747C233.775 195.024 236.461 195.294 238.23 195.797C239.847 196.256 240.275 196.769 239.787 196.365C238.644 195.421 235.769 192.093 234.274 185.846L137.019 209.115C143.083 234.456 156.689 257.421 176.083 273.449C195.498 289.494 223.475 300.311 254.024 293.002L230.755 195.747ZM234.274 185.846C232.78 179.598 233.837 175.33 234.429 173.97C234.681 173.39 234.531 174.041 233.298 175.182C231.948 176.432 229.675 177.887 226.654 178.61L203.385 81.3549C172.836 88.6642 152.785 110.973 142.734 134.068C132.695 157.139 130.956 183.774 137.019 209.115L234.274 185.846ZM226.654 178.61C223.634 179.333 220.948 179.063 219.179 178.56C217.563 178.101 217.134 177.588 217.622 177.992C218.765 178.936 221.64 182.264 223.135 188.511L320.39 165.242C314.327 139.901 300.72 116.936 281.326 100.908C261.911 84.8631 233.934 74.0455 203.385 81.3549L226.654 178.61Z" fill="#FFBC00" mask="url(#path-4-inside-2_123_508)"/>
<mask id="path-6-inside-3_123_508" fill="white">
<ellipse cx="172.39" cy="262.071" rx="34.5741" ry="45.7439" transform="rotate(-31.5269 172.39 262.071)"/>
</mask>
<path d="M171.175 262.816C174.067 267.53 174.49 271.544 174.312 273.373C174.23 274.211 174.081 274.103 174.489 273.376C174.951 272.55 175.921 271.336 177.485 270.376L215.134 331.749C234.994 319.566 244.14 299.195 245.974 280.344C247.805 261.518 242.866 241.988 232.547 225.168L171.175 262.816ZM177.485 270.376C179.05 269.417 180.572 269.102 181.517 269.064C182.35 269.031 182.379 269.213 181.595 268.906C179.883 268.235 176.497 266.039 173.606 261.325L112.233 298.974C122.552 315.794 137.723 329.047 155.335 335.946C172.971 342.854 195.274 343.932 215.134 331.749L177.485 270.376ZM173.606 261.325C170.714 256.611 170.291 252.598 170.469 250.768C170.55 249.93 170.699 250.038 170.292 250.766C169.83 251.591 168.86 252.805 167.295 253.765L129.646 192.393C109.786 204.576 100.64 224.946 98.8068 243.797C96.9755 262.623 101.915 282.153 112.233 298.974L173.606 261.325ZM167.295 253.765C165.731 254.725 164.209 255.039 163.264 255.077C162.43 255.11 162.402 254.929 163.186 255.236C164.897 255.906 168.283 258.102 171.175 262.816L232.547 225.168C222.229 208.347 207.058 195.094 189.446 188.195C171.81 181.287 149.507 180.209 129.646 192.393L167.295 253.765Z" fill="#FFBC00" mask="url(#path-6-inside-3_123_508)"/>
<mask id="path-8-inside-4_123_508" fill="white">
<ellipse cx="375.165" cy="266.185" rx="34.5741" ry="45.7439" transform="rotate(41.3 375.165 266.185)"/>
</mask>
<path d="M370.338 261.944C367.339 265.357 364.566 266.329 363.927 266.46C363.694 266.508 364.457 266.302 366.029 266.638C367.727 267.001 369.966 267.932 372.034 269.749L317.914 331.352C336.853 347.991 360.722 350.834 380.44 346.781C400.129 342.733 418.267 331.63 431.941 316.064L370.338 261.944ZM372.034 269.749C374.103 271.566 375.314 273.667 375.892 275.303C376.428 276.819 376.322 277.603 376.339 277.365C376.387 276.714 376.994 273.84 379.993 270.426L318.389 216.306C304.714 231.872 296.04 251.288 294.561 271.334C293.081 291.41 298.975 314.714 317.914 331.352L372.034 269.749ZM379.993 270.426C382.992 267.012 385.764 266.04 386.403 265.909C386.637 265.861 385.874 266.068 384.301 265.731C382.604 265.368 380.365 264.438 378.296 262.621L432.417 201.017C413.478 184.379 389.608 181.535 369.891 185.589C350.202 189.637 332.064 200.74 318.389 216.306L379.993 270.426ZM378.296 262.621C376.228 260.804 375.017 258.703 374.438 257.066C373.902 255.55 374.009 254.767 373.991 255.005C373.943 255.655 373.337 258.53 370.338 261.944L431.941 316.064C445.616 300.498 454.291 281.081 455.769 261.035C457.25 240.96 451.356 217.656 432.417 201.017L378.296 262.621Z" fill="#FFBC00" mask="url(#path-8-inside-4_123_508)"/>
<path d="M269.605 387.055C276.538 387.055 316.665 402.323 327.758 387.055C338.85 371.788 359.272 337.552 325.069 317.659C319.835 314.614 316.406 316.043 313.514 310.719C311.1 306.275 314.454 293.144 309.27 283.894C304.455 275.304 298.22 265.513 277.369 264.158C273.997 263.939 270.598 263.988 267.238 264.356C258.024 265.363 239.058 269.212 234.855 283.894C232.471 292.221 232.896 303.688 228.469 310.719C224.756 316.617 213.219 319.473 208.048 324.144C191.171 339.387 187.96 356.478 201.115 375.034C213.611 392.664 221.743 393.698 238.091 394.928C250.74 395.88 262.672 387.055 269.605 387.055Z" fill="#FFBC00" stroke="#FFBC00" stroke-width="39" stroke-linecap="round"/>
</svg>
