<svg width="347" height="131" viewBox="0 0 347 131" fill="none" xmlns="http://www.w3.org/2000/svg">
<path d="M37.754 1.8C45.882 1.8 51.93 3.208 55.898 6.024C59.866 8.84 61.85 13.96 61.85 21.384C61.85 27.592 59.93 32.776 56.09 36.936C52.25 41.032 46.106 43.08 37.658 43.08C34.906 43.08 32.73 43.048 31.13 42.984L30.938 59.88L37.946 60.648C37.946 63.464 37.21 66.248 35.738 69H12.026L11.162 63.72C14.49 62.376 17.178 61.448 19.226 60.936C19.226 60.744 18.938 43.816 18.362 10.152C17.338 9.896 14.682 9.064 10.394 7.65599L11.162 1.8H37.754ZM35.642 33.96C39.93 33.896 43.258 32.712 45.626 30.408C47.994 28.104 49.178 25.128 49.178 21.48C49.178 17.832 48.122 15.24 46.01 13.704C43.962 12.104 40.73 11.304 36.314 11.304C34.586 11.304 32.954 11.336 31.418 11.4C31.29 21.512 31.226 29.064 31.226 34.056L35.642 33.96ZM89.1553 60.744C91.3313 60.744 95.7473 59.24 102.403 56.232C103.811 58.28 104.867 60.648 105.571 63.336C102.051 65.512 98.5953 67.208 95.2033 68.424C91.8753 69.576 89.5073 70.152 88.0993 70.152C80.3553 70.152 74.4673 68.008 70.4353 63.72C66.4672 59.432 64.4832 53.352 64.4832 45.48C64.4832 37.544 66.4672 31.176 70.4353 26.376C74.4032 21.512 80.2913 19.08 88.0993 19.08C94.3073 19.08 99.0433 21.096 102.307 25.128C105.571 29.16 107.203 34.408 107.203 40.872C107.203 42.216 106.435 43.752 104.899 45.48L77.2513 45C77.3793 50.12 78.3393 54.024 80.1313 56.712C81.9233 59.4 84.9313 60.744 89.1553 60.744ZM87.2353 27.048C84.8033 27.048 82.5313 27.528 80.4193 28.488C78.9473 31.56 78.0193 34.408 77.6352 37.032C82.6273 36.84 88.2913 36.712 94.6272 36.648C94.3073 30.248 91.8433 27.048 87.2353 27.048ZM123.304 70.152L121.192 70.056C120.808 69.352 120.296 68.04 119.656 66.12C119.016 64.2 118.664 62.76 118.6 61.8C118.28 55.464 117.928 44.488 117.544 28.872H110.824L111.112 23.4C112.584 22.376 114.344 21.448 116.392 20.616L124.168 8.328C126.664 8.584 128.616 9.256 130.024 10.344L129.928 19.464C133.96 19.592 137.704 19.976 141.16 20.616C141.16 23.176 140.36 25.928 138.76 28.872H129.832C129.576 42.312 129.416 52.392 129.352 59.112C131.912 59.368 135.4 60.104 139.816 61.32L139.72 66.312C138.632 67.016 136.2 67.848 132.424 68.808C128.712 69.704 125.672 70.152 123.304 70.152ZM44.7256 83.496L41.7496 83.4L38.9656 71.88C35.2536 71.24 32.4696 70.92 30.6136 70.92C26.9656 70.92 22.8696 71.656 18.3256 73.128C16.9816 75.624 15.9256 78.824 15.1576 82.728C14.3896 86.632 14.0056 90.312 14.0056 93.768C14.0056 111.432 19.0936 120.264 29.2696 120.264C33.6216 120.264 37.0776 119.624 39.6376 118.344L41.6536 106.632C45.6856 106.632 48.7576 106.856 50.8696 107.304C51.8936 114.28 52.4056 119.944 52.4056 124.296C50.8696 125.448 47.7656 126.728 43.0936 128.136C38.4856 129.544 33.9416 130.248 29.4616 130.248C10.3896 130.248 0.853624 118.472 0.853624 94.92C0.853624 83.72 3.15762 75.208 7.76562 69.384C12.4376 63.56 19.8616 60.648 30.0376 60.648C35.0936 60.648 39.5736 61.384 43.4776 62.856C46.9336 64.136 49.8776 65.544 52.3096 67.08C52.3096 71.432 51.8296 76.68 50.8696 82.824C49.0776 83.272 47.0296 83.496 44.7256 83.496ZM82.9164 86.76C80.6124 86.76 77.9884 87.336 75.0444 88.488C74.2124 89.768 73.4124 92.04 72.6444 95.304C71.9404 98.504 71.5884 101.736 71.5884 105C71.5884 111.016 72.4844 115.304 74.2764 117.864C76.0684 120.36 78.9484 121.608 82.9164 121.608C86.9484 121.608 89.8604 120.36 91.6524 117.864C93.4444 115.304 94.3404 110.952 94.3404 104.808C94.3404 98.6 93.4124 94.056 91.5564 91.176C89.7644 88.232 86.8844 86.76 82.9164 86.76ZM82.9164 79.08C90.4044 79.08 96.4204 81.384 100.964 85.992C105.572 90.536 107.876 96.904 107.876 105.096C107.876 113.224 105.604 119.432 101.06 123.72C96.5164 128.008 90.4684 130.152 82.9164 130.152C75.3644 130.152 69.3164 128.008 64.7724 123.72C60.2924 119.432 58.0524 113.224 58.0524 105.096C58.0524 96.904 60.3244 90.536 64.8684 85.992C69.4124 81.384 75.4284 79.08 82.9164 79.08ZM140.141 79.08C146.541 79.08 151.181 80.648 154.061 83.784C156.941 86.92 158.381 91.304 158.381 96.936C158.381 102.568 158.061 110.184 157.421 119.784L165.005 120.648C165.005 123.272 164.269 126.056 162.797 129H138.893L138.029 123.72C141.037 122.504 143.821 121.544 146.381 120.84C146.189 113.48 145.997 107.304 145.805 102.312C145.613 97.256 145.133 93.832 144.365 92.04C143.597 90.248 141.901 89.352 139.277 89.352C135.309 89.352 131.757 90.056 128.621 91.464C128.557 94.216 128.365 98.728 128.045 105C127.789 111.208 127.629 116.136 127.565 119.784L135.053 120.648C135.053 123.272 134.317 126.056 132.845 129H108.941L108.077 123.72C111.277 122.504 114.157 121.544 116.717 120.84C116.653 117 116.429 111.688 116.045 104.904C115.725 98.12 115.533 93.096 115.469 89.832C113.101 89.576 110.573 89.096 107.885 88.392L108.365 81.48C112.845 80.264 117.901 79.656 123.533 79.656C124.237 80.104 125.197 81.48 126.413 83.784C128.589 82.696 131.245 81.64 134.381 80.616C137.517 79.592 139.437 79.08 140.141 79.08ZM198.241 79.08C204.641 79.08 209.281 80.648 212.161 83.784C215.041 86.92 216.481 91.304 216.481 96.936C216.481 102.568 216.161 110.184 215.521 119.784L223.105 120.648C223.105 123.272 222.369 126.056 220.897 129H196.993L196.129 123.72C199.137 122.504 201.921 121.544 204.481 120.84C204.289 113.48 204.097 107.304 203.905 102.312C203.713 97.256 203.233 93.832 202.465 92.04C201.697 90.248 200.001 89.352 197.377 89.352C193.409 89.352 189.857 90.056 186.721 91.464C186.657 94.216 186.465 98.728 186.145 105C185.889 111.208 185.729 116.136 185.665 119.784L193.153 120.648C193.153 123.272 192.417 126.056 190.945 129H167.041L166.177 123.72C169.377 122.504 172.257 121.544 174.817 120.84C174.753 117 174.529 111.688 174.145 104.904C173.825 98.12 173.633 93.096 173.569 89.832C171.201 89.576 168.673 89.096 165.985 88.392L166.465 81.48C170.945 80.264 176.001 79.656 181.633 79.656C182.337 80.104 183.297 81.48 184.513 83.784C186.689 82.696 189.345 81.64 192.481 80.616C195.617 79.592 197.537 79.08 198.241 79.08ZM249.909 120.744C252.085 120.744 256.501 119.24 263.157 116.232C264.565 118.28 265.621 120.648 266.325 123.336C262.805 125.512 259.349 127.208 255.957 128.424C252.629 129.576 250.261 130.152 248.853 130.152C241.109 130.152 235.221 128.008 231.189 123.72C227.221 119.432 225.237 113.352 225.237 105.48C225.237 97.544 227.221 91.176 231.189 86.376C235.157 81.512 241.045 79.08 248.853 79.08C255.061 79.08 259.797 81.096 263.061 85.128C266.325 89.16 267.957 94.408 267.957 100.872C267.957 102.216 267.189 103.752 265.653 105.48L238.005 105C238.133 110.12 239.093 114.024 240.885 116.712C242.677 119.4 245.685 120.744 249.909 120.744ZM247.989 87.048C245.557 87.048 243.285 87.528 241.173 88.488C239.701 91.56 238.773 94.408 238.389 97.032C243.381 96.84 249.045 96.712 255.381 96.648C255.061 90.248 252.597 87.048 247.989 87.048ZM298.938 87.048L297.402 86.952C293.818 86.952 290.938 88.2 288.762 90.696C286.65 93.128 285.594 97.256 285.594 103.08C285.594 108.84 286.394 113.224 287.994 116.232C289.658 119.24 292.826 120.744 297.498 120.744C299.674 120.744 304.282 119.272 311.322 116.328C312.922 118.568 313.786 120.904 313.914 123.336C310.394 125.512 306.938 127.208 303.546 128.424C300.218 129.64 297.85 130.248 296.442 130.248C288.57 130.248 282.682 128.104 278.778 123.816C274.874 119.464 272.922 113.384 272.922 105.576C272.922 87.912 280.89 79.08 296.826 79.08C299.578 79.08 302.394 79.432 305.274 80.136C308.218 80.776 310.522 81.608 312.186 82.632C311.994 89.032 311.29 93.672 310.074 96.552C307.962 97.064 304.986 97.32 301.146 97.32L298.938 87.048ZM328.283 130.152L326.171 130.056C325.787 129.352 325.275 128.04 324.635 126.12C323.995 124.2 323.643 122.76 323.579 121.8C323.259 115.464 322.907 104.488 322.523 88.872H315.803L316.091 83.4C317.563 82.376 319.323 81.448 321.371 80.616L329.147 68.328C331.643 68.584 333.595 69.256 335.003 70.344L334.907 79.464C338.939 79.592 342.683 79.976 346.139 80.616C346.139 83.176 345.339 85.928 343.739 88.872H334.811C334.555 102.312 334.395 112.392 334.331 119.112C336.891 119.368 340.379 120.104 344.795 121.32L344.699 126.312C343.611 127.016 341.179 127.848 337.403 128.808C333.691 129.704 330.651 130.152 328.283 130.152Z" fill="white"/>
<path d="M186.823 23.496L183.847 23.4L181.063 11.88C177.351 11.24 174.567 10.92 172.711 10.92C169.063 10.92 164.967 11.656 160.423 13.128C159.079 15.624 158.023 18.824 157.255 22.728C156.487 26.632 156.103 30.312 156.103 33.768C156.103 51.432 161.191 60.264 171.367 60.264C175.719 60.264 179.175 59.624 181.735 58.344L183.751 46.632C187.783 46.632 190.855 46.856 192.967 47.304C193.991 54.28 194.503 59.944 194.503 64.296C192.967 65.448 189.863 66.728 185.191 68.136C180.583 69.544 176.039 70.248 171.559 70.248C152.487 70.248 142.951 58.472 142.951 34.92C142.951 23.72 145.255 15.208 149.863 9.384C154.535 3.56 161.959 0.647999 172.135 0.647999C177.191 0.647999 181.671 1.384 185.575 2.856C189.031 4.136 191.975 5.544 194.407 7.08C194.407 11.432 193.927 16.68 192.967 22.824C191.175 23.272 189.127 23.496 186.823 23.496Z" fill="#ED6E9F"/>
<path d="M217.718 70.152C212.278 70.152 208.054 69.032 205.046 66.792C202.102 64.552 200.63 60.776 200.63 55.464C200.63 50.408 202.39 46.28 205.91 43.08C207.958 41.224 210.806 40.136 214.454 39.816C218.102 39.496 223.126 39.336 229.526 39.336V37.8C229.526 33.896 228.886 31.048 227.606 29.256C226.39 27.4 224.214 26.472 221.078 26.472C219.478 26.472 218.038 26.792 216.758 27.432L214.454 35.784L207.35 35.592C205.75 33.16 204.886 29.288 204.758 23.976C206.038 23.336 209.046 22.376 213.782 21.096C218.518 19.752 221.558 19.08 222.902 19.08C229.814 19.08 234.838 20.52 237.974 23.4C241.11 26.216 242.678 30.728 242.678 36.936C242.678 43.08 242.39 51.208 241.814 61.32C245.462 61.64 248.278 62.184 250.262 62.952C250.326 63.72 250.358 64.648 250.358 65.736L250.262 67.848C245.654 69.384 241.014 70.152 236.342 70.152C235.126 70.152 234.23 70.12 233.654 70.056C232.694 68.136 232.118 65.832 231.926 63.144H231.446C230.23 64.296 228.086 65.768 225.014 67.56C222.006 69.288 219.574 70.152 217.718 70.152ZM212.918 56.04C212.918 58.152 213.558 59.72 214.838 60.744C216.182 61.704 217.686 62.184 219.35 62.184C221.014 62.184 222.998 61.448 225.302 59.976C227.606 58.44 229.462 57.064 230.87 55.848L230.39 47.016C225.334 47.272 221.526 47.752 218.966 48.456C214.934 49.288 212.918 51.816 212.918 56.04Z" fill="#389BF2"/>
<path d="M278.684 29.448C278.556 29.128 277.916 28.968 276.764 28.968C275.612 28.968 273.628 29.832 270.812 31.56C270.556 44.104 270.396 53.512 270.332 59.784L277.82 60.744C277.82 63.496 277.084 66.248 275.612 69H251.708L250.844 63.72C254.812 62.248 257.692 61.288 259.484 60.84L258.428 29.736C255.1 29.48 252.316 29 250.076 28.296L250.748 21.384C252.476 20.616 258.716 20.104 269.468 19.848C270.044 20.424 270.332 21.544 270.332 23.208C275.964 20.456 279.516 19.08 280.988 19.08C282.524 19.08 284.38 19.464 286.556 20.232C288.796 20.936 290.492 21.704 291.644 22.536V24.168C291.644 29.416 291.004 34.28 289.724 38.76C288.636 39.208 287.196 39.432 285.404 39.432C283.612 39.432 281.948 39.336 280.412 39.144C280.22 38.312 279.644 35.08 278.684 29.448Z" fill="#00E096"/>
<path d="M317.969 60.744C320.145 60.744 324.561 59.24 331.217 56.232C332.625 58.28 333.681 60.648 334.385 63.336C330.865 65.512 327.409 67.208 324.017 68.424C320.689 69.576 318.321 70.152 316.913 70.152C309.169 70.152 303.281 68.008 299.249 63.72C295.281 59.432 293.297 53.352 293.297 45.48C293.297 37.544 295.281 31.176 299.249 26.376C303.217 21.512 309.105 19.08 316.913 19.08C323.121 19.08 327.857 21.096 331.121 25.128C334.385 29.16 336.017 34.408 336.017 40.872C336.017 42.216 335.249 43.752 333.713 45.48L306.065 45C306.193 50.12 307.153 54.024 308.945 56.712C310.737 59.4 313.745 60.744 317.969 60.744ZM316.049 27.048C313.617 27.048 311.345 27.528 309.233 28.488C307.761 31.56 306.833 34.408 306.449 37.032C311.441 36.84 317.105 36.712 323.441 36.648C323.121 30.248 320.657 27.048 316.049 27.048Z" fill="#56A7F0"/>
</svg>
