<svg width="327" height="287" viewBox="0 0 327 287" fill="none" xmlns="http://www.w3.org/2000/svg">
<path d="M233.988 7.22454C237.143 8.27783 243.662 12.0653 244.337 18.789C248.51 18.0622 259.224 18.5814 262.208 29.7797C263.741 40.633 256.709 61.4779 217.11 59.4642C208.061 46.0203 201.423 8.77902 226.787 7.22453" stroke="#FFC000" stroke-width="4" stroke-linecap="round"/>
<path d="M244.471 35.6611C243.263 36.5725 241.927 37.0004 240.778 37.0019C239.63 37.0033 238.745 36.5891 238.232 35.9073C237.719 35.2254 237.565 34.2603 237.883 33.1555C238.201 32.05 238.98 30.8829 240.188 29.9715C241.396 29.06 242.731 28.6321 243.88 28.6307C245.029 28.6292 245.913 29.0434 246.427 29.7253C246.94 30.4072 247.094 31.3722 246.776 32.4771C246.458 33.5825 245.679 34.7496 244.471 35.6611Z" stroke="#FFC000" stroke-width="2.4"/>
<path d="M237.077 28.0529C236.55 29.4719 235.655 30.5528 234.688 31.1746C233.721 31.796 232.752 31.925 231.952 31.6287C231.152 31.3324 230.502 30.6039 230.174 29.503C229.846 28.4015 229.873 26.9992 230.399 25.5802C230.926 24.1612 231.821 23.0802 232.788 22.4585C233.756 21.8371 234.724 21.7081 235.524 22.0044C236.324 22.3007 236.975 23.0291 237.303 24.1301C237.631 25.2316 237.604 26.6339 237.077 28.0529Z" stroke="#FFC000" stroke-width="2.4"/>
<path d="M226.737 30.249C226.692 31.3713 226.308 32.3285 225.78 32.9725C225.252 33.6159 224.638 33.8942 224.07 33.8721C223.502 33.8501 222.912 33.5248 222.438 32.8425C221.964 32.1595 221.658 31.1756 221.703 30.0532C221.749 28.9309 222.133 27.9738 222.661 27.3298C223.188 26.6864 223.803 26.408 224.371 26.4301C224.938 26.4522 225.529 26.7774 226.002 27.4597C226.477 28.1427 226.783 29.1267 226.737 30.249Z" stroke="#FFC000" stroke-width="2.4"/>
<path d="M242.737 45.0818C241.652 45.3714 240.625 45.2881 239.855 44.9745C239.086 44.6613 238.64 44.1562 238.494 43.6065C238.348 43.0568 238.485 42.3959 238.998 41.7404C239.51 41.0844 240.36 40.5001 241.445 40.2105C242.529 39.9208 243.556 40.0041 244.326 40.3177C245.095 40.631 245.541 41.136 245.687 41.6857C245.833 42.2354 245.696 42.8964 245.184 43.5518C244.671 44.2079 243.821 44.7921 242.737 45.0818Z" stroke="#FFC000" stroke-width="2.4"/>
<path d="M228.746 50.0833C227.158 49.5395 226.121 47.5477 225.451 47.0991C224.781 46.6506 223.057 46.7322 221.896 45.8218C220.395 44.6452 219.676 44.019 219.61 41.5055C219.54 38.8596 220.957 37.4143 223.575 37.0318C224.377 36.9146 225.677 37.3848 226.418 37.0545C227.301 36.6608 228.002 35.5243 228.772 34.8731C228.818 34.8341 228.865 34.7974 228.912 34.7629C231.653 32.7818 236.218 36.1907 235.973 39.5639C235.97 39.6053 235.967 39.6465 235.964 39.6874C235.866 40.9175 234.692 41.9705 234.637 42.5565C234.572 43.2586 234.996 43.3422 235.305 43.9753C237.323 48.1122 233.678 49.5185 233.678 49.5185" stroke="#FFC000" stroke-width="3" stroke-linecap="round"/>
<path d="M104.07 30.2166C100.515 30.7886 96.1429 32.3005 92.5063 34.1801C82.4544 39.3695 71.8304 50.6064 68.5615 59.5141C67.4991 62.4153 67.3766 63.2325 67.3766 67.6455C67.3766 72.0994 67.4583 72.7532 68.4798 74.878C69.0519 76.1447 70.3186 77.9834 71.2175 79.005C72.9746 80.9254 77.1015 83.3771 78.5726 83.3771C79.0629 83.3771 79.4306 83.5406 79.4306 83.7449C79.4306 83.99 78.2457 86.5643 76.7747 89.5472C73.9552 95.2678 73.6283 96.7796 74.9359 98.0872C75.9574 99.1087 78.2457 99.1904 79.1038 98.1689C79.4306 97.8011 80.9425 95.0226 82.4135 92.0397C89.932 76.9619 100.801 62.4561 110.363 54.7334C131.038 38.1437 162.992 43.4148 177.498 65.8885L179.05 68.2176L177.457 69.9337C176.599 70.8736 175.169 73.1209 174.27 74.9597C170.143 83.2954 169.857 91.8354 173.452 98.9453L174.719 101.479L173.248 105.81C170.51 114.146 170.347 122.972 172.88 130.94C174.474 136.006 177.579 141.85 180.235 144.71L181.175 145.731L178.519 148.101C172.349 153.577 167.119 161.953 164.3 171.025C162.338 177.317 161.807 180.831 161.766 187.614V193.989L163.074 196.481L164.381 199.015H154.166H143.991L145.258 196.849C151.592 186.143 155.024 171.556 155.024 155.497C155.024 149.45 154.615 147.366 153.39 146.712C152.245 146.099 150.693 146.222 149.753 146.998C148.977 147.693 148.895 148.265 148.731 156.723C148.364 174.048 145.381 185.408 138.557 195.868L136.473 199.015H128.832H121.15L120.864 196.685C120.701 195.378 120.701 189.698 120.864 184.1C121.232 169.349 122.498 158.725 124.582 152.106C125.686 148.592 125.44 147.243 123.52 146.549C120.741 145.568 119.475 147.08 117.922 153.454C115.797 161.913 114.857 172.169 114.817 187.247L114.776 199.015H108.973H103.13L101.863 197.298C98.6763 192.926 95.8977 185.98 94.4676 178.911C93.6912 174.947 93.5278 173.068 93.5686 165.508C93.5686 159.338 93.773 155.579 94.2633 152.923C94.9171 149 94.8762 148.265 93.8138 146.998C93.1192 146.222 91.2396 146.058 90.0546 146.712C88.5836 147.529 87.6846 152.474 87.3169 162.239C86.8265 175.438 89.1556 187.369 93.9364 196.032C94.7128 197.462 95.3665 198.729 95.3665 198.81C95.3665 199.301 85.519 198.933 83.149 198.402C74.8133 196.399 67.9895 189.453 66.069 180.954C65.0883 176.623 65.0883 157.377 66.069 149.164C67.6626 135.925 70.482 122.89 74.1187 112.225C75.6714 107.608 75.7123 106.178 74.2821 105.074C71.4627 102.868 69.9508 104.584 67.4583 112.797C61.8194 131.512 59 149.532 59 166.489C59.0409 182.956 61.0022 189.576 67.9895 196.563C71.5036 200.077 74.9768 202.243 79.6349 203.836L82.9039 204.939H160.745H238.585L241.241 203.673C244.51 202.12 247.33 199.382 248.882 196.236C249.904 194.152 250.027 193.376 250.149 189.208C250.313 183.365 249.414 177.195 248.229 176.01C247.207 174.947 245.205 174.947 244.061 175.969C243.284 176.663 243.244 177.031 243.448 179.197C243.57 180.545 243.816 183.937 243.938 186.756C244.224 192.558 243.856 193.866 241.16 196.44C238.994 198.524 237.033 199.015 230.577 199.015H224.897L225.673 197.012C227.635 192.068 228.493 182.997 227.635 175.969C227.062 171.597 224.774 169.962 222.2 172.169L221.097 173.109L221.587 177.93C222.363 185.285 221.424 192.15 218.972 196.931L217.95 199.015H213.456H208.961V186.143V173.231L207.939 172.25C206.673 170.943 205.12 170.943 203.853 172.25L202.832 173.231V186.143V199.015H198.337H193.842L192.984 197.298C190.369 192.15 189.388 185.653 190.165 178.339C190.573 174.171 190.573 173.517 190.001 172.659C188.816 170.861 186.201 170.82 185.057 172.577C184.24 173.844 183.504 181.812 183.831 185.939C184.158 189.943 185.016 194.275 186.119 197.053L186.896 199.015H181.216C174.76 199.015 172.799 198.524 170.633 196.44C168.263 194.152 167.609 192.436 167.65 188.309C167.732 178.339 171.001 167.633 176.354 159.91C178.56 156.723 182.687 152.269 184.567 151.003C185.588 150.349 185.67 150.349 187.795 151.942C192.657 155.62 199.277 158.398 205.365 159.379C207.367 159.706 210.595 159.829 214.15 159.665C220.116 159.461 224.12 158.562 229.228 156.315L231.557 155.293L232.579 156.192C233.927 157.459 237.686 163.22 238.912 165.835C240.302 168.777 241.119 169.594 242.712 169.594C244.183 169.594 245.736 168.083 245.736 166.612C245.736 165.386 241.813 158.153 239.362 154.884L237.155 151.942L240.751 148.428C247.248 141.972 250.721 135.516 252.846 125.791C253.009 125.015 253.745 124.361 255.42 123.421C261.713 119.866 266.167 113.165 267.638 105.034C269.027 97.27 268.169 93.8785 264.042 91.0999C256.973 86.2783 248.433 84.5621 241.16 86.4008L238.463 87.0955L236.256 85.461C229.841 80.5577 219.953 77.4931 211.29 77.6974L207.286 77.82L206.141 76.3898C204.997 75.0414 204.957 74.8371 204.752 68.8714C204.507 61.9249 203.894 58.9421 201.688 54.4065C198.95 48.7676 194.128 44.9675 187.836 43.4965C182.605 42.2707 173.003 43.2513 166.506 45.6621C165.771 45.9482 164.831 45.6621 162.011 44.2729C154.534 40.5136 148.527 39.1243 139.006 39.0426L131.774 38.9609L129.2 37.0404C125.972 34.5887 120.987 32.1779 117.023 31.0747C113.591 30.1349 107.257 29.7262 104.07 30.2166ZM115.511 36.9996C117.922 37.6125 124.092 40.4728 123.765 40.7997C123.683 40.8814 122.376 41.4126 120.905 41.9029C113.795 44.3954 107.216 48.7267 100.883 55.0602C96.5924 59.3507 90.5449 66.8283 86.4588 72.8349C83.2307 77.5748 82.4952 78.106 79.6349 77.2888C76.3252 76.3898 73.7101 73.0392 73.0971 69.0348C72.2799 63.5594 77.0198 54.6108 84.4566 47.5418C91.2804 41.0857 98.0225 37.4082 105.378 36.2232C107.461 35.8963 113.019 36.3049 115.511 36.9996ZM187.55 49.6665C193.924 51.5462 198.051 57.9205 198.623 66.7874C198.868 70.2606 198.827 70.4241 198.092 70.1381C194.619 68.7896 191.023 67.809 188.571 67.6047C185.956 67.3595 185.547 67.196 184.934 66.2562C181.666 60.9034 179.214 57.6754 175.986 54.4065C173.902 52.2817 172.227 50.4838 172.308 50.4429C172.39 50.3612 173.534 50.0343 174.883 49.7074C178.152 48.931 184.975 48.8902 187.55 49.6665ZM193.188 74.9188C195.885 75.9404 200.625 78.8007 200.217 79.2093C200.094 79.291 198.541 79.9856 196.784 80.6803C190.573 83.2137 184.853 87.4224 180.317 92.8978L178.356 95.2269L177.702 93.1021C176.19 87.9127 177.334 81.6609 180.889 75.6543L182.197 73.4887L186.283 73.693C189.307 73.8156 191.105 74.1425 193.188 74.9188ZM220.811 84.8481C226.858 86.36 233.805 90.5278 237.809 94.9409C244.102 101.887 247.125 109.814 247.085 119.131C247.044 125.219 246.145 128.978 243.284 134.74C239.076 143.28 230.536 150.226 221.26 152.637C214.355 154.435 207.694 154.231 201.197 152.024C184.689 146.467 174.474 129.387 177.661 112.716C180.521 97.9237 191.758 86.932 206.795 84.1943C209.615 83.6631 217.705 84.0309 220.811 84.8481ZM253.091 92.6526C255.625 93.3473 258.853 94.8591 260.773 96.3301C261.999 97.2291 262.081 97.4743 262.081 99.6399C262.04 105.483 259.751 111.449 256.033 115.208L253.786 117.496L253.5 116.27C253.336 115.576 252.969 113.614 252.723 111.857C251.824 106.096 248.882 99.1496 245.287 94.3688L243.652 92.1623L245.205 91.9171C247.248 91.5902 250.272 91.8763 253.091 92.6526Z" fill="#FFC000"/>
<path d="M190.655 104.094C189.715 104.911 188.53 108.548 188.53 110.632C188.53 113.206 191.431 114.554 193.352 112.879C194.21 112.184 195.477 108.139 195.477 106.178C195.477 104.911 193.883 103.399 192.535 103.399C191.963 103.399 191.105 103.726 190.655 104.094Z" fill="#FFC000"/>
<path d="M234.826 115.045C233.764 115.494 233.437 115.984 232.865 117.987C232.497 119.294 232.088 120.683 232.007 121.092C231.353 123.258 233.927 125.505 236.093 124.688C237.278 124.198 237.932 122.972 238.831 119.417C239.321 117.455 239.28 117.21 238.545 116.189C237.441 114.759 236.338 114.391 234.826 115.045Z" fill="#FFC000"/>
<path d="M199.849 117.374C199.481 117.66 198.991 118.436 198.746 119.049C196.784 124.402 202.587 130.654 208.225 129.223C209.819 128.815 210.064 128.856 211.004 129.755C215.335 133.882 222.854 131.92 224.529 126.241C224.979 124.81 224.938 124.484 224.202 123.503C222.731 121.542 219.871 121.787 218.972 123.993C217.705 127.017 214.681 126.281 214.681 122.972C214.681 119.131 210.268 118.027 208.797 121.542C208.103 123.258 206.836 123.748 205.488 122.849C204.67 122.318 204.466 121.828 204.466 120.357C204.466 119.049 204.221 118.273 203.649 117.701C202.709 116.761 200.87 116.638 199.849 117.374Z" fill="#FFC000"/>
<path d="M112.651 67.523C111.67 68.0133 111.221 68.9531 110.322 72.4672C109.464 75.9812 110.322 77.6566 112.937 77.6566C114.857 77.6566 115.552 76.8802 116.369 73.7339C117.309 70.0972 117.227 68.8714 115.961 67.8907C114.776 66.9509 113.999 66.8692 112.651 67.523Z" fill="#FFC000"/>
<path d="M130.793 78.5555C128.668 80.2308 129.69 84.1535 132.305 84.1944C132.959 84.1944 133 84.3987 132.755 85.7062C132.346 88.117 131.529 89.0977 129.935 89.0977C128.096 89.0977 127.238 88.0353 127.238 85.7471C127.238 83.5406 126.012 82.1513 124.092 82.1513C122.172 82.1513 121.109 83.704 121.109 86.5235C121.109 90.0784 122.784 92.7752 126.094 94.4505C127.729 95.2678 130.998 95.4721 132.673 94.8592C133.49 94.5323 133.858 94.6549 134.634 95.5129C138.23 99.3539 145.176 98.8636 148.2 94.5731C148.813 93.6742 149.426 92.2849 149.549 91.4677C149.753 90.201 149.63 89.7924 148.731 88.8934C147.097 87.259 145.422 87.5859 143.787 89.9149C142.725 91.4268 142.234 91.7946 141.009 91.8763C138.966 92.0397 137.985 90.6504 138.516 88.1579C138.884 86.4417 138.884 86.4417 140.804 86.3192C142.316 86.2374 142.929 85.9514 143.583 85.1342C145.626 82.5191 144.073 80.9663 137.862 79.291C132.632 77.9426 131.774 77.82 130.793 78.5555Z" fill="#FFC000"/>
<path d="M160.459 80.5985C159.968 81.1297 159.314 82.8868 158.865 84.7255C158.17 87.831 158.17 87.9127 158.988 89.016C159.519 89.7106 160.254 90.1601 161.071 90.2418C163.033 90.4461 164.177 89.016 165.076 85.2976C165.811 82.1921 165.771 82.1104 164.953 81.0072C163.85 79.4953 161.684 79.291 160.459 80.5985Z" fill="#FFC000"/>
<path d="M73.336 235.2C78.7547 235.2 82.7867 236.139 85.432 238.016C88.0773 239.893 89.4 243.307 89.4 248.256C89.4 252.395 88.12 255.851 85.56 258.624C83 261.355 78.904 262.72 73.272 262.72C71.4373 262.72 69.9867 262.699 68.92 262.656L68.792 273.92L73.464 274.432C73.464 276.309 72.9733 278.165 71.992 280H56.184L55.608 276.48C57.8267 275.584 59.6187 274.965 60.984 274.624C60.984 274.496 60.792 263.211 60.408 240.768C59.7253 240.597 57.9547 240.043 55.096 239.104L55.608 235.2H73.336ZM71.928 256.64C74.7867 256.597 77.0053 255.808 78.584 254.272C80.1627 252.736 80.952 250.752 80.952 248.32C80.952 245.888 80.248 244.16 78.84 243.136C77.4747 242.069 75.32 241.536 72.376 241.536C71.224 241.536 70.136 241.557 69.112 241.6C69.0267 248.341 68.984 253.376 68.984 256.704L71.928 256.64ZM107.604 274.496C109.054 274.496 111.998 273.493 116.436 271.488C117.374 272.853 118.078 274.432 118.548 276.224C116.201 277.675 113.897 278.805 111.636 279.616C109.417 280.384 107.838 280.768 106.9 280.768C101.737 280.768 97.8115 279.339 95.1235 276.48C92.4782 273.621 91.1555 269.568 91.1555 264.32C91.1555 259.029 92.4782 254.784 95.1235 251.584C97.7688 248.341 101.694 246.72 106.9 246.72C111.038 246.72 114.196 248.064 116.372 250.752C118.548 253.44 119.636 256.939 119.636 261.248C119.636 262.144 119.124 263.168 118.1 264.32L99.6675 264C99.7528 267.413 100.393 270.016 101.588 271.808C102.782 273.6 104.788 274.496 107.604 274.496ZM106.324 252.032C104.702 252.032 103.188 252.352 101.78 252.992C100.798 255.04 100.18 256.939 99.9235 258.688C103.252 258.56 107.028 258.475 111.252 258.432C111.038 254.165 109.396 252.032 106.324 252.032ZM130.37 280.768L128.962 280.704C128.706 280.235 128.364 279.36 127.938 278.08C127.511 276.8 127.276 275.84 127.234 275.2C127.02 270.976 126.786 263.659 126.53 253.248H122.05L122.242 249.6C123.223 248.917 124.396 248.299 125.762 247.744L130.946 239.552C132.61 239.723 133.911 240.171 134.85 240.896L134.786 246.976C137.474 247.061 139.97 247.317 142.274 247.744C142.274 249.451 141.74 251.285 140.674 253.248H134.722C134.551 262.208 134.444 268.928 134.402 273.408C136.108 273.579 138.434 274.069 141.378 274.88L141.314 278.208C140.588 278.677 138.967 279.232 136.45 279.872C133.975 280.469 131.948 280.768 130.37 280.768Z" fill="#FFC000"/>
<path d="M172.716 249.664L170.732 249.6L168.876 241.92C166.401 241.493 164.545 241.28 163.308 241.28C160.876 241.28 158.145 241.771 155.116 242.752C154.22 244.416 153.516 246.549 153.004 249.152C152.492 251.755 152.236 254.208 152.236 256.512C152.236 268.288 155.628 274.176 162.412 274.176C165.313 274.176 167.617 273.749 169.324 272.896L170.668 265.088C173.356 265.088 175.404 265.237 176.812 265.536C177.494 270.187 177.836 273.963 177.836 276.864C176.812 277.632 174.742 278.485 171.628 279.424C168.556 280.363 165.526 280.832 162.54 280.832C149.825 280.832 143.468 272.981 143.468 257.28C143.468 249.813 145.004 244.139 148.076 240.256C151.19 236.373 156.14 234.432 162.924 234.432C166.294 234.432 169.281 234.923 171.884 235.904C174.188 236.757 176.15 237.696 177.772 238.72C177.772 241.621 177.452 245.12 176.812 249.216C175.617 249.515 174.252 249.664 172.716 249.664Z" fill="#ED6E9F"/>
<path d="M193.312 280.768C189.685 280.768 186.869 280.021 184.864 278.528C182.901 277.035 181.92 274.517 181.92 270.976C181.92 267.605 183.093 264.853 185.44 262.72C186.805 261.483 188.704 260.757 191.136 260.544C193.568 260.331 196.917 260.224 201.184 260.224V259.2C201.184 256.597 200.757 254.699 199.904 253.504C199.093 252.267 197.643 251.648 195.552 251.648C194.485 251.648 193.525 251.861 192.672 252.288L191.136 257.856L186.4 257.728C185.333 256.107 184.757 253.525 184.672 249.984C185.525 249.557 187.531 248.917 190.688 248.064C193.845 247.168 195.872 246.72 196.768 246.72C201.376 246.72 204.725 247.68 206.816 249.6C208.907 251.477 209.952 254.485 209.952 258.624C209.952 262.72 209.76 268.139 209.376 274.88C211.808 275.093 213.685 275.456 215.008 275.968C215.051 276.48 215.072 277.099 215.072 277.824L215.008 279.232C211.936 280.256 208.843 280.768 205.728 280.768C204.917 280.768 204.32 280.747 203.936 280.704C203.296 279.424 202.912 277.888 202.784 276.096H202.464C201.653 276.864 200.224 277.845 198.176 279.04C196.171 280.192 194.549 280.768 193.312 280.768ZM190.112 271.36C190.112 272.768 190.539 273.813 191.392 274.496C192.288 275.136 193.291 275.456 194.4 275.456C195.509 275.456 196.832 274.965 198.368 273.984C199.904 272.96 201.141 272.043 202.08 271.232L201.76 265.344C198.389 265.515 195.851 265.835 194.144 266.304C191.456 266.859 190.112 268.544 190.112 271.36Z" fill="#389BF2"/>
<path d="M233.956 253.632C233.871 253.419 233.444 253.312 232.676 253.312C231.908 253.312 230.585 253.888 228.708 255.04C228.537 263.403 228.431 269.675 228.388 273.856L233.38 274.496C233.38 276.331 232.889 278.165 231.908 280H215.972L215.396 276.48C218.041 275.499 219.961 274.859 221.156 274.56L220.452 253.824C218.233 253.653 216.377 253.333 214.884 252.864L215.332 248.256C216.484 247.744 220.644 247.403 227.812 247.232C228.196 247.616 228.388 248.363 228.388 249.472C232.143 247.637 234.511 246.72 235.492 246.72C236.516 246.72 237.753 246.976 239.204 247.488C240.697 247.957 241.828 248.469 242.596 249.024V250.112C242.596 253.611 242.169 256.853 241.316 259.84C240.591 260.139 239.631 260.288 238.436 260.288C237.241 260.288 236.132 260.224 235.108 260.096C234.98 259.541 234.596 257.387 233.956 253.632Z" fill="#00E096"/>
<path d="M260.146 274.496C261.597 274.496 264.541 273.493 268.978 271.488C269.917 272.853 270.621 274.432 271.09 276.224C268.743 277.675 266.439 278.805 264.178 279.616C261.959 280.384 260.381 280.768 259.442 280.768C254.279 280.768 250.354 279.339 247.666 276.48C245.021 273.621 243.698 269.568 243.698 264.32C243.698 259.029 245.021 254.784 247.666 251.584C250.311 248.341 254.237 246.72 259.442 246.72C263.581 246.72 266.738 248.064 268.914 250.752C271.09 253.44 272.178 256.939 272.178 261.248C272.178 262.144 271.666 263.168 270.642 264.32L252.21 264C252.295 267.413 252.935 270.016 254.13 271.808C255.325 273.6 257.33 274.496 260.146 274.496ZM258.866 252.032C257.245 252.032 255.73 252.352 254.322 252.992C253.341 255.04 252.722 256.939 252.466 258.688C255.794 258.56 259.57 258.475 263.794 258.432C263.581 254.165 261.938 252.032 258.866 252.032Z" fill="#56A7F0"/>
</svg>
