<svg width="663" height="935" viewBox="0 0 663 935" fill="none" xmlns="http://www.w3.org/2000/svg">
    <path d="M0 24C0 10.7451 10.7452 0 24 0H637C650.255 0 661 10.7452 661 24V887C661 900.255 650.255 911 637 911H24C10.7452 911 0 900.255 0 887V24Z" fill="#FFC000"/>
    <path d="M165.808 247.082C165.733 246.249 165.395 245.601 164.797 245.139C164.206 244.669 163.361 244.434 162.263 244.434C161.536 244.434 160.929 244.529 160.445 244.718C159.96 244.908 159.596 245.169 159.354 245.502C159.111 245.828 158.986 246.203 158.979 246.627C158.964 246.976 159.032 247.283 159.183 247.548C159.342 247.813 159.57 248.048 159.865 248.252C160.168 248.449 160.532 248.624 160.956 248.775C161.38 248.927 161.858 249.059 162.388 249.173L164.388 249.627C165.539 249.877 166.554 250.211 167.433 250.627C168.32 251.044 169.062 251.54 169.661 252.116C170.267 252.692 170.725 253.355 171.036 254.105C171.346 254.855 171.505 255.696 171.513 256.627C171.505 258.097 171.134 259.359 170.399 260.412C169.664 261.465 168.608 262.271 167.229 262.832C165.858 263.393 164.202 263.673 162.263 263.673C160.316 263.673 158.619 263.381 157.172 262.798C155.725 262.215 154.6 261.328 153.797 260.139C152.994 258.949 152.581 257.446 152.558 255.627H157.945C157.99 256.377 158.191 257.002 158.547 257.502C158.903 258.002 159.392 258.381 160.013 258.639C160.642 258.896 161.369 259.025 162.195 259.025C162.952 259.025 163.596 258.923 164.126 258.718C164.664 258.514 165.077 258.23 165.365 257.866C165.653 257.502 165.801 257.086 165.808 256.616C165.801 256.177 165.664 255.802 165.399 255.491C165.134 255.173 164.725 254.9 164.172 254.673C163.626 254.438 162.929 254.222 162.081 254.025L159.649 253.457C157.634 252.995 156.047 252.249 154.888 251.218C153.729 250.18 153.153 248.779 153.161 247.014C153.153 245.574 153.539 244.313 154.32 243.23C155.1 242.146 156.179 241.302 157.558 240.696C158.937 240.09 160.509 239.787 162.274 239.787C164.077 239.787 165.642 240.093 166.967 240.707C168.301 241.313 169.335 242.165 170.07 243.264C170.804 244.362 171.179 245.635 171.195 247.082H165.808ZM174.002 263.377V245.923H179.559V263.377H174.002ZM176.786 243.889C176.006 243.889 175.335 243.631 174.774 243.116C174.214 242.593 173.934 241.965 173.934 241.23C173.934 240.502 174.214 239.881 174.774 239.366C175.335 238.843 176.006 238.582 176.786 238.582C177.574 238.582 178.244 238.843 178.797 239.366C179.358 239.881 179.638 240.502 179.638 241.23C179.638 241.965 179.358 242.593 178.797 243.116C178.244 243.631 177.574 243.889 176.786 243.889ZM182.743 263.377V245.923H188.028V249.127H188.221C188.584 248.067 189.198 247.23 190.062 246.616C190.925 246.002 191.956 245.696 193.153 245.696C194.365 245.696 195.403 246.006 196.266 246.627C197.13 247.249 197.679 248.082 197.914 249.127H198.096C198.422 248.09 199.058 247.26 200.005 246.639C200.952 246.01 202.069 245.696 203.357 245.696C205.009 245.696 206.35 246.226 207.38 247.287C208.41 248.34 208.925 249.787 208.925 251.627V263.377H203.368V252.9C203.368 252.029 203.145 251.366 202.698 250.912C202.251 250.449 201.672 250.218 200.959 250.218C200.194 250.218 199.592 250.468 199.153 250.968C198.721 251.461 198.505 252.124 198.505 252.957V263.377H193.164V252.843C193.164 252.033 192.944 251.393 192.505 250.923C192.065 250.453 191.486 250.218 190.766 250.218C190.281 250.218 189.853 250.336 189.482 250.571C189.111 250.798 188.819 251.124 188.607 251.548C188.403 251.972 188.3 252.472 188.3 253.048V263.377H182.743ZM212.016 269.923V245.923H217.516V248.912H217.687C217.914 248.381 218.236 247.87 218.653 247.377C219.077 246.885 219.615 246.484 220.266 246.173C220.926 245.855 221.713 245.696 222.63 245.696C223.842 245.696 224.975 246.014 226.028 246.65C227.088 247.287 227.945 248.268 228.596 249.593C229.248 250.919 229.573 252.609 229.573 254.662C229.573 256.639 229.259 258.294 228.63 259.627C228.009 260.961 227.168 261.961 226.107 262.627C225.054 263.294 223.884 263.627 222.596 263.627C221.717 263.627 220.956 263.484 220.312 263.196C219.668 262.908 219.126 262.529 218.687 262.059C218.255 261.59 217.922 261.086 217.687 260.548H217.573V269.923H212.016ZM217.46 254.65C217.46 255.59 217.585 256.408 217.835 257.105C218.092 257.802 218.46 258.343 218.937 258.73C219.422 259.109 220.001 259.298 220.676 259.298C221.357 259.298 221.937 259.109 222.414 258.73C222.891 258.343 223.251 257.802 223.494 257.105C223.744 256.408 223.869 255.59 223.869 254.65C223.869 253.711 223.744 252.896 223.494 252.207C223.251 251.518 222.891 250.984 222.414 250.605C221.945 250.226 221.365 250.037 220.676 250.037C219.994 250.037 219.414 250.222 218.937 250.593C218.46 250.965 218.092 251.495 217.835 252.184C217.585 252.874 217.46 253.696 217.46 254.65ZM237.69 240.105V263.377H232.133V240.105H237.69ZM240.875 263.377V245.923H246.432V263.377H240.875ZM243.659 243.889C242.879 243.889 242.208 243.631 241.648 243.116C241.087 242.593 240.807 241.965 240.807 241.23C240.807 240.502 241.087 239.881 241.648 239.366C242.208 238.843 242.879 238.582 243.659 238.582C244.447 238.582 245.117 238.843 245.67 239.366C246.231 239.881 246.511 240.502 246.511 241.23C246.511 241.965 246.231 242.593 245.67 243.116C245.117 243.631 244.447 243.889 243.659 243.889ZM259.537 245.923V250.014H248.31V245.923H259.537ZM250.651 263.377V245.037C250.651 243.688 250.905 242.571 251.412 241.684C251.92 240.79 252.624 240.124 253.526 239.684C254.427 239.237 255.469 239.014 256.651 239.014C257.424 239.014 258.151 239.074 258.833 239.196C259.522 239.309 260.033 239.412 260.367 239.502L259.48 243.571C259.276 243.502 259.026 243.446 258.73 243.4C258.442 243.355 258.17 243.332 257.912 243.332C257.261 243.332 256.814 243.476 256.571 243.764C256.329 244.052 256.208 244.446 256.208 244.946V263.377H250.651ZM261.858 263.377V245.923H267.415V263.377H261.858ZM264.643 243.889C263.862 243.889 263.192 243.631 262.631 243.116C262.071 242.593 261.79 241.965 261.79 241.23C261.79 240.502 262.071 239.881 262.631 239.366C263.192 238.843 263.862 238.582 264.643 238.582C265.43 238.582 266.101 238.843 266.654 239.366C267.215 239.881 267.495 240.502 267.495 241.23C267.495 241.965 267.215 242.593 266.654 243.116C266.101 243.631 265.43 243.889 264.643 243.889ZM278.748 263.707C276.907 263.707 275.328 263.328 274.009 262.571C272.699 261.813 271.691 260.76 270.987 259.412C270.282 258.055 269.93 256.487 269.93 254.707C269.93 252.919 270.282 251.351 270.987 250.002C271.699 248.646 272.71 247.59 274.021 246.832C275.339 246.074 276.911 245.696 278.737 245.696C280.35 245.696 281.756 245.987 282.953 246.571C284.157 247.154 285.096 247.98 285.771 249.048C286.453 250.109 286.812 251.355 286.85 252.787H281.657C281.551 251.893 281.248 251.192 280.748 250.684C280.256 250.177 279.612 249.923 278.816 249.923C278.172 249.923 277.608 250.105 277.123 250.468C276.638 250.824 276.259 251.355 275.987 252.059C275.721 252.756 275.589 253.62 275.589 254.65C275.589 255.68 275.721 256.552 275.987 257.264C276.259 257.968 276.638 258.502 277.123 258.866C277.608 259.222 278.172 259.4 278.816 259.4C279.331 259.4 279.786 259.29 280.18 259.071C280.581 258.851 280.911 258.529 281.168 258.105C281.426 257.673 281.589 257.15 281.657 256.537H286.85C286.797 257.976 286.437 259.234 285.771 260.309C285.112 261.385 284.184 262.222 282.987 262.821C281.797 263.412 280.384 263.707 278.748 263.707ZM294.262 263.673C293.149 263.673 292.16 263.487 291.297 263.116C290.44 262.737 289.762 262.169 289.262 261.412C288.77 260.646 288.524 259.688 288.524 258.537C288.524 257.567 288.694 256.749 289.035 256.082C289.376 255.415 289.846 254.874 290.444 254.457C291.043 254.04 291.732 253.726 292.512 253.514C293.293 253.294 294.126 253.146 295.012 253.071C296.005 252.98 296.804 252.885 297.41 252.787C298.016 252.68 298.456 252.533 298.728 252.343C299.009 252.146 299.149 251.87 299.149 251.514V251.457C299.149 250.874 298.948 250.423 298.547 250.105C298.145 249.787 297.603 249.627 296.922 249.627C296.187 249.627 295.596 249.787 295.149 250.105C294.702 250.423 294.418 250.862 294.297 251.423L289.172 251.241C289.323 250.18 289.713 249.234 290.342 248.4C290.978 247.559 291.85 246.9 292.956 246.423C294.069 245.938 295.406 245.696 296.967 245.696C298.081 245.696 299.107 245.828 300.047 246.093C300.986 246.351 301.804 246.73 302.501 247.23C303.198 247.722 303.736 248.328 304.115 249.048C304.501 249.768 304.694 250.59 304.694 251.514V263.377H299.467V260.946H299.331C299.02 261.537 298.622 262.037 298.137 262.446C297.66 262.855 297.096 263.162 296.444 263.366C295.8 263.571 295.073 263.673 294.262 263.673ZM295.978 260.037C296.577 260.037 297.115 259.915 297.592 259.673C298.077 259.43 298.463 259.097 298.751 258.673C299.039 258.241 299.183 257.741 299.183 257.173V255.514C299.024 255.597 298.831 255.673 298.603 255.741C298.384 255.809 298.141 255.874 297.876 255.934C297.611 255.995 297.338 256.048 297.058 256.093C296.778 256.139 296.509 256.18 296.251 256.218C295.728 256.302 295.281 256.43 294.91 256.605C294.547 256.779 294.266 257.006 294.069 257.287C293.88 257.559 293.785 257.885 293.785 258.264C293.785 258.84 293.99 259.279 294.399 259.582C294.815 259.885 295.342 260.037 295.978 260.037ZM313.297 253.423V263.377H307.74V245.923H313.024V249.127H313.217C313.604 248.059 314.263 247.222 315.195 246.616C316.126 246.002 317.236 245.696 318.524 245.696C319.751 245.696 320.816 245.972 321.717 246.525C322.626 247.071 323.331 247.836 323.831 248.821C324.338 249.798 324.588 250.942 324.581 252.252V263.377H319.024V253.343C319.032 252.374 318.785 251.616 318.285 251.071C317.793 250.525 317.107 250.252 316.229 250.252C315.645 250.252 315.13 250.381 314.683 250.639C314.244 250.889 313.903 251.249 313.66 251.718C313.426 252.188 313.304 252.756 313.297 253.423ZM334.044 263.627C332.756 263.627 331.586 263.294 330.533 262.627C329.48 261.961 328.639 260.961 328.01 259.627C327.381 258.294 327.067 256.639 327.067 254.662C327.067 252.609 327.393 250.919 328.044 249.593C328.696 248.268 329.548 247.287 330.601 246.65C331.662 246.014 332.802 245.696 334.022 245.696C334.938 245.696 335.722 245.855 336.374 246.173C337.025 246.484 337.563 246.885 337.987 247.377C338.412 247.87 338.734 248.381 338.953 248.912H339.067V240.105H344.624V263.377H339.124V260.548H338.953C338.718 261.086 338.385 261.59 337.953 262.059C337.522 262.529 336.98 262.908 336.328 263.196C335.684 263.484 334.923 263.627 334.044 263.627ZM335.976 259.298C336.65 259.298 337.226 259.109 337.703 258.73C338.181 258.343 338.548 257.802 338.806 257.105C339.063 256.408 339.192 255.59 339.192 254.65C339.192 253.696 339.063 252.874 338.806 252.184C338.556 251.495 338.188 250.965 337.703 250.593C337.226 250.222 336.65 250.037 335.976 250.037C335.287 250.037 334.703 250.226 334.226 250.605C333.749 250.984 333.385 251.518 333.135 252.207C332.893 252.896 332.772 253.711 332.772 254.65C332.772 255.59 332.897 256.408 333.147 257.105C333.397 257.802 333.756 258.343 334.226 258.73C334.703 259.109 335.287 259.298 335.976 259.298ZM355.934 263.707C354.1 263.707 352.525 263.332 351.206 262.582C349.896 261.824 348.884 260.771 348.172 259.423C347.468 258.067 347.116 256.495 347.116 254.707C347.116 252.912 347.468 251.34 348.172 249.991C348.884 248.635 349.896 247.582 351.206 246.832C352.525 246.074 354.1 245.696 355.934 245.696C357.767 245.696 359.339 246.074 360.65 246.832C361.968 247.582 362.979 248.635 363.684 249.991C364.396 251.34 364.752 252.912 364.752 254.707C364.752 256.495 364.396 258.067 363.684 259.423C362.979 260.771 361.968 261.824 360.65 262.582C359.339 263.332 357.767 263.707 355.934 263.707ZM355.968 259.514C356.634 259.514 357.199 259.309 357.661 258.9C358.123 258.491 358.475 257.923 358.718 257.196C358.968 256.468 359.093 255.627 359.093 254.673C359.093 253.703 358.968 252.855 358.718 252.127C358.475 251.4 358.123 250.832 357.661 250.423C357.199 250.014 356.634 249.809 355.968 249.809C355.278 249.809 354.695 250.014 354.218 250.423C353.748 250.832 353.388 251.4 353.138 252.127C352.896 252.855 352.775 253.703 352.775 254.673C352.775 255.627 352.896 256.468 353.138 257.196C353.388 257.923 353.748 258.491 354.218 258.9C354.695 259.309 355.278 259.514 355.968 259.514ZM378.69 263.673C377.576 263.673 376.588 263.487 375.724 263.116C374.868 262.737 374.19 262.169 373.69 261.412C373.198 260.646 372.951 259.688 372.951 258.537C372.951 257.567 373.122 256.749 373.463 256.082C373.804 255.415 374.273 254.874 374.872 254.457C375.47 254.04 376.16 253.726 376.94 253.514C377.72 253.294 378.554 253.146 379.44 253.071C380.432 252.98 381.232 252.885 381.838 252.787C382.444 252.68 382.883 252.533 383.156 252.343C383.436 252.146 383.576 251.87 383.576 251.514V251.457C383.576 250.874 383.376 250.423 382.974 250.105C382.573 249.787 382.031 249.627 381.349 249.627C380.614 249.627 380.023 249.787 379.576 250.105C379.129 250.423 378.845 250.862 378.724 251.423L373.599 251.241C373.751 250.18 374.141 249.234 374.769 248.4C375.406 247.559 376.277 246.9 377.383 246.423C378.497 245.938 379.834 245.696 381.394 245.696C382.508 245.696 383.535 245.828 384.474 246.093C385.413 246.351 386.232 246.73 386.929 247.23C387.626 247.722 388.163 248.328 388.542 249.048C388.929 249.768 389.122 250.59 389.122 251.514V263.377H383.894V260.946H383.758C383.448 261.537 383.05 262.037 382.565 262.446C382.088 262.855 381.523 263.162 380.872 263.366C380.228 263.571 379.501 263.673 378.69 263.673ZM380.406 260.037C381.004 260.037 381.542 259.915 382.019 259.673C382.504 259.43 382.891 259.097 383.179 258.673C383.466 258.241 383.61 257.741 383.61 257.173V255.514C383.451 255.597 383.258 255.673 383.031 255.741C382.811 255.809 382.569 255.874 382.304 255.934C382.038 255.995 381.766 256.048 381.485 256.093C381.205 256.139 380.936 256.18 380.679 256.218C380.156 256.302 379.709 256.43 379.338 256.605C378.974 256.779 378.694 257.006 378.497 257.287C378.307 257.559 378.213 257.885 378.213 258.264C378.213 258.84 378.417 259.279 378.826 259.582C379.243 259.885 379.769 260.037 380.406 260.037ZM413.963 247.707C413.834 247.23 413.645 246.809 413.395 246.446C413.145 246.074 412.838 245.76 412.475 245.502C412.111 245.245 411.694 245.052 411.225 244.923C410.755 244.787 410.24 244.718 409.679 244.718C408.55 244.718 407.573 244.991 406.747 245.537C405.929 246.082 405.297 246.877 404.85 247.923C404.403 248.961 404.179 250.222 404.179 251.707C404.179 253.199 404.395 254.472 404.827 255.525C405.259 256.578 405.884 257.381 406.702 257.934C407.52 258.487 408.512 258.764 409.679 258.764C410.709 258.764 411.581 258.597 412.293 258.264C413.012 257.923 413.558 257.442 413.929 256.821C414.3 256.199 414.486 255.468 414.486 254.627L415.531 254.752H409.872V250.65H419.906V253.73C419.906 255.813 419.463 257.597 418.577 259.082C417.698 260.567 416.486 261.707 414.94 262.502C413.403 263.298 411.634 263.696 409.634 263.696C407.414 263.696 405.463 263.215 403.781 262.252C402.1 261.29 400.789 259.919 399.85 258.139C398.91 256.351 398.44 254.23 398.44 251.775C398.44 249.866 398.725 248.173 399.293 246.696C399.861 245.211 400.653 243.953 401.668 242.923C402.69 241.893 403.872 241.112 405.213 240.582C406.562 240.052 408.012 239.787 409.565 239.787C410.914 239.787 412.168 239.98 413.327 240.366C414.494 240.752 415.524 241.298 416.418 242.002C417.319 242.707 418.05 243.544 418.611 244.514C419.172 245.484 419.52 246.548 419.656 247.707H413.963ZM431.029 263.707C429.203 263.707 427.627 263.347 426.302 262.627C424.983 261.9 423.968 260.866 423.256 259.525C422.552 258.177 422.199 256.574 422.199 254.718C422.199 252.915 422.555 251.34 423.267 249.991C423.98 248.635 424.983 247.582 426.279 246.832C427.574 246.074 429.101 245.696 430.858 245.696C432.101 245.696 433.237 245.889 434.267 246.275C435.298 246.662 436.188 247.234 436.938 247.991C437.688 248.749 438.271 249.684 438.688 250.798C439.105 251.904 439.313 253.173 439.313 254.605V255.991H424.142V252.764H434.142C434.135 252.173 433.995 251.646 433.722 251.184C433.449 250.722 433.074 250.362 432.597 250.105C432.127 249.84 431.586 249.707 430.972 249.707C430.351 249.707 429.794 249.847 429.302 250.127C428.809 250.4 428.419 250.775 428.131 251.252C427.843 251.722 427.692 252.256 427.677 252.855V256.139C427.677 256.851 427.817 257.476 428.097 258.014C428.377 258.544 428.775 258.957 429.29 259.252C429.805 259.548 430.419 259.696 431.131 259.696C431.623 259.696 432.07 259.627 432.472 259.491C432.873 259.355 433.218 259.154 433.506 258.889C433.794 258.624 434.01 258.298 434.154 257.912L439.256 258.059C439.044 259.203 438.578 260.199 437.858 261.048C437.146 261.889 436.211 262.544 435.052 263.014C433.892 263.476 432.552 263.707 431.029 263.707ZM457.038 251.252L451.935 251.389C451.882 251.025 451.738 250.703 451.504 250.423C451.269 250.135 450.962 249.912 450.583 249.752C450.212 249.586 449.78 249.502 449.288 249.502C448.644 249.502 448.094 249.631 447.64 249.889C447.193 250.146 446.973 250.495 446.981 250.934C446.973 251.275 447.11 251.571 447.39 251.821C447.678 252.071 448.189 252.271 448.924 252.423L452.288 253.059C454.03 253.393 455.325 253.946 456.174 254.718C457.03 255.491 457.462 256.514 457.469 257.787C457.462 258.984 457.106 260.025 456.401 260.912C455.704 261.798 454.75 262.487 453.538 262.98C452.325 263.465 450.939 263.707 449.379 263.707C446.886 263.707 444.92 263.196 443.481 262.173C442.049 261.143 441.231 259.764 441.026 258.037L446.515 257.9C446.636 258.537 446.95 259.021 447.458 259.355C447.966 259.688 448.613 259.855 449.401 259.855C450.113 259.855 450.693 259.722 451.14 259.457C451.587 259.192 451.814 258.84 451.822 258.4C451.814 258.006 451.64 257.692 451.299 257.457C450.958 257.215 450.424 257.025 449.697 256.889L446.651 256.309C444.901 255.991 443.598 255.404 442.742 254.548C441.886 253.684 441.462 252.586 441.469 251.252C441.462 250.086 441.772 249.09 442.401 248.264C443.03 247.43 443.924 246.794 445.083 246.355C446.242 245.915 447.61 245.696 449.185 245.696C451.549 245.696 453.413 246.192 454.776 247.184C456.14 248.169 456.894 249.525 457.038 251.252ZM469.705 245.923V250.014H458.694V245.923H469.705ZM461.001 241.741H466.558V257.889C466.558 258.23 466.611 258.506 466.717 258.718C466.83 258.923 466.993 259.071 467.205 259.162C467.418 259.245 467.671 259.287 467.967 259.287C468.179 259.287 468.402 259.268 468.637 259.23C468.88 259.184 469.062 259.146 469.183 259.116L470.024 263.127C469.759 263.203 469.384 263.298 468.899 263.412C468.421 263.525 467.849 263.597 467.183 263.627C465.88 263.688 464.762 263.537 463.83 263.173C462.906 262.802 462.198 262.226 461.705 261.446C461.221 260.665 460.986 259.684 461.001 258.502V241.741ZM477.109 263.673C475.996 263.673 475.007 263.487 474.143 263.116C473.287 262.737 472.609 262.169 472.109 261.412C471.617 260.646 471.371 259.688 471.371 258.537C471.371 257.567 471.541 256.749 471.882 256.082C472.223 255.415 472.693 254.874 473.291 254.457C473.889 254.04 474.579 253.726 475.359 253.514C476.139 253.294 476.973 253.146 477.859 253.071C478.852 252.98 479.651 252.885 480.257 252.787C480.863 252.68 481.302 252.533 481.575 252.343C481.855 252.146 481.996 251.87 481.996 251.514V251.457C481.996 250.874 481.795 250.423 481.393 250.105C480.992 249.787 480.45 249.627 479.768 249.627C479.033 249.627 478.443 249.787 477.996 250.105C477.549 250.423 477.264 250.862 477.143 251.423L472.018 251.241C472.17 250.18 472.56 249.234 473.189 248.4C473.825 247.559 474.696 246.9 475.802 246.423C476.916 245.938 478.253 245.696 479.814 245.696C480.927 245.696 481.954 245.828 482.893 246.093C483.833 246.351 484.651 246.73 485.348 247.23C486.045 247.722 486.583 248.328 486.961 249.048C487.348 249.768 487.541 250.59 487.541 251.514V263.377H482.314V260.946H482.177C481.867 261.537 481.469 262.037 480.984 262.446C480.507 262.855 479.943 263.162 479.291 263.366C478.647 263.571 477.92 263.673 477.109 263.673ZM478.825 260.037C479.424 260.037 479.961 259.915 480.439 259.673C480.924 259.43 481.31 259.097 481.598 258.673C481.886 258.241 482.03 257.741 482.03 257.173V255.514C481.871 255.597 481.677 255.673 481.45 255.741C481.23 255.809 480.988 255.874 480.723 255.934C480.458 255.995 480.185 256.048 479.905 256.093C479.624 256.139 479.355 256.18 479.098 256.218C478.575 256.302 478.128 256.43 477.757 256.605C477.393 256.779 477.113 257.006 476.916 257.287C476.727 257.559 476.632 257.885 476.632 258.264C476.632 258.84 476.836 259.279 477.246 259.582C477.662 259.885 478.189 260.037 478.825 260.037ZM476.825 243.764L473.927 243.741C473.927 242.203 474.295 241.04 475.03 240.252C475.764 239.465 476.658 239.067 477.711 239.059C478.272 239.059 478.749 239.15 479.143 239.332C479.545 239.506 479.897 239.715 480.2 239.957C480.511 240.192 480.799 240.4 481.064 240.582C481.336 240.756 481.624 240.843 481.927 240.843C482.359 240.836 482.677 240.677 482.882 240.366C483.094 240.048 483.204 239.62 483.211 239.082L486.064 239.116C486.041 240.639 485.666 241.802 484.939 242.605C484.211 243.4 483.325 243.802 482.28 243.809C481.704 243.817 481.215 243.73 480.814 243.548C480.412 243.366 480.064 243.158 479.768 242.923C479.48 242.688 479.204 242.484 478.939 242.309C478.674 242.127 478.382 242.037 478.064 242.037C477.693 242.037 477.393 242.188 477.166 242.491C476.939 242.787 476.825 243.211 476.825 243.764ZM498.734 263.707C496.901 263.707 495.325 263.332 494.007 262.582C492.697 261.824 491.685 260.771 490.973 259.423C490.269 258.067 489.916 256.495 489.916 254.707C489.916 252.912 490.269 251.34 490.973 249.991C491.685 248.635 492.697 247.582 494.007 246.832C495.325 246.074 496.901 245.696 498.734 245.696C500.568 245.696 502.14 246.074 503.45 246.832C504.769 247.582 505.78 248.635 506.484 249.991C507.197 251.34 507.553 252.912 507.553 254.707C507.553 256.495 507.197 258.067 506.484 259.423C505.78 260.771 504.769 261.824 503.45 262.582C502.14 263.332 500.568 263.707 498.734 263.707ZM498.769 259.514C499.435 259.514 500 259.309 500.462 258.9C500.924 258.491 501.276 257.923 501.519 257.196C501.769 256.468 501.894 255.627 501.894 254.673C501.894 253.703 501.769 252.855 501.519 252.127C501.276 251.4 500.924 250.832 500.462 250.423C500 250.014 499.435 249.809 498.769 249.809C498.079 249.809 497.496 250.014 497.019 250.423C496.549 250.832 496.189 251.4 495.939 252.127C495.697 252.855 495.575 253.703 495.575 254.673C495.575 255.627 495.697 256.468 495.939 257.196C496.189 257.923 496.549 258.491 497.019 258.9C497.496 259.309 498.079 259.514 498.769 259.514ZM217.321 302.627C216.033 302.627 214.862 302.294 213.809 301.627C212.756 300.961 211.915 299.961 211.287 298.627C210.658 297.294 210.343 295.639 210.343 293.662C210.343 291.609 210.669 289.919 211.321 288.593C211.972 287.268 212.825 286.287 213.878 285.65C214.938 285.014 216.078 284.696 217.298 284.696C218.215 284.696 218.999 284.855 219.65 285.173C220.302 285.484 220.84 285.885 221.264 286.377C221.688 286.87 222.01 287.381 222.23 287.912H222.343V279.105H227.9V302.377H222.4V299.548H222.23C221.995 300.086 221.662 300.59 221.23 301.059C220.798 301.529 220.256 301.908 219.605 302.196C218.961 302.484 218.2 302.627 217.321 302.627ZM219.253 298.298C219.927 298.298 220.503 298.109 220.98 297.73C221.457 297.343 221.825 296.802 222.082 296.105C222.34 295.408 222.468 294.59 222.468 293.65C222.468 292.696 222.34 291.874 222.082 291.184C221.832 290.495 221.465 289.965 220.98 289.593C220.503 289.222 219.927 289.037 219.253 289.037C218.563 289.037 217.98 289.226 217.503 289.605C217.025 289.984 216.662 290.518 216.412 291.207C216.169 291.896 216.048 292.711 216.048 293.65C216.048 294.59 216.173 295.408 216.423 296.105C216.673 296.802 217.033 297.343 217.503 297.73C217.98 298.109 218.563 298.298 219.253 298.298ZM239.21 302.707C237.377 302.707 235.801 302.332 234.483 301.582C233.172 300.824 232.161 299.771 231.449 298.423C230.744 297.067 230.392 295.495 230.392 293.707C230.392 291.912 230.744 290.34 231.449 288.991C232.161 287.635 233.172 286.582 234.483 285.832C235.801 285.074 237.377 284.696 239.21 284.696C241.044 284.696 242.616 285.074 243.926 285.832C245.244 286.582 246.256 287.635 246.96 288.991C247.672 290.34 248.028 291.912 248.028 293.707C248.028 295.495 247.672 297.067 246.96 298.423C246.256 299.771 245.244 300.824 243.926 301.582C242.616 302.332 241.044 302.707 239.21 302.707ZM239.244 298.514C239.911 298.514 240.475 298.309 240.937 297.9C241.4 297.491 241.752 296.923 241.994 296.196C242.244 295.468 242.369 294.627 242.369 293.673C242.369 292.703 242.244 291.855 241.994 291.127C241.752 290.4 241.4 289.832 240.937 289.423C240.475 289.014 239.911 288.809 239.244 288.809C238.555 288.809 237.972 289.014 237.494 289.423C237.025 289.832 236.665 290.4 236.415 291.127C236.172 291.855 236.051 292.703 236.051 293.673C236.051 294.627 236.172 295.468 236.415 296.196C236.665 296.923 237.025 297.491 237.494 297.9C237.972 298.309 238.555 298.514 239.244 298.514ZM272.285 290.252L267.182 290.389C267.129 290.025 266.985 289.703 266.751 289.423C266.516 289.135 266.209 288.912 265.83 288.752C265.459 288.586 265.027 288.502 264.535 288.502C263.891 288.502 263.341 288.631 262.887 288.889C262.44 289.146 262.22 289.495 262.228 289.934C262.22 290.275 262.357 290.571 262.637 290.821C262.925 291.071 263.436 291.271 264.171 291.423L267.535 292.059C269.277 292.393 270.572 292.946 271.421 293.718C272.277 294.491 272.709 295.514 272.716 296.787C272.709 297.984 272.353 299.025 271.648 299.912C270.951 300.798 269.997 301.487 268.785 301.98C267.572 302.465 266.186 302.707 264.626 302.707C262.133 302.707 260.167 302.196 258.728 301.173C257.296 300.143 256.478 298.764 256.273 297.037L261.762 296.9C261.883 297.537 262.197 298.021 262.705 298.355C263.213 298.688 263.86 298.855 264.648 298.855C265.36 298.855 265.94 298.722 266.387 298.457C266.834 298.192 267.061 297.84 267.069 297.4C267.061 297.006 266.887 296.692 266.546 296.457C266.205 296.215 265.671 296.025 264.944 295.889L261.898 295.309C260.148 294.991 258.845 294.404 257.989 293.548C257.133 292.684 256.709 291.586 256.716 290.252C256.709 289.086 257.019 288.09 257.648 287.264C258.277 286.43 259.171 285.794 260.33 285.355C261.489 284.915 262.857 284.696 264.432 284.696C266.796 284.696 268.66 285.192 270.023 286.184C271.387 287.169 272.141 288.525 272.285 290.252ZM283.259 302.707C281.434 302.707 279.858 302.347 278.532 301.627C277.214 300.9 276.199 299.866 275.487 298.525C274.782 297.177 274.43 295.574 274.43 293.718C274.43 291.915 274.786 290.34 275.498 288.991C276.21 287.635 277.214 286.582 278.509 285.832C279.805 285.074 281.331 284.696 283.089 284.696C284.331 284.696 285.468 284.889 286.498 285.275C287.528 285.662 288.418 286.234 289.168 286.991C289.918 287.749 290.502 288.684 290.918 289.798C291.335 290.904 291.543 292.173 291.543 293.605V294.991H276.373V291.764H286.373C286.365 291.173 286.225 290.646 285.953 290.184C285.68 289.722 285.305 289.362 284.828 289.105C284.358 288.84 283.816 288.707 283.203 288.707C282.581 288.707 282.024 288.847 281.532 289.127C281.04 289.4 280.649 289.775 280.362 290.252C280.074 290.722 279.922 291.256 279.907 291.855V295.139C279.907 295.851 280.047 296.476 280.328 297.014C280.608 297.544 281.006 297.957 281.521 298.252C282.036 298.548 282.649 298.696 283.362 298.696C283.854 298.696 284.301 298.627 284.703 298.491C285.104 298.355 285.449 298.154 285.737 297.889C286.024 297.624 286.24 297.298 286.384 296.912L291.487 297.059C291.274 298.203 290.809 299.199 290.089 300.048C289.377 300.889 288.441 301.544 287.282 302.014C286.123 302.476 284.782 302.707 283.259 302.707ZM305.291 294.843V284.923H310.836V302.377H305.541V299.127H305.359C304.973 300.196 304.314 301.044 303.382 301.673C302.458 302.294 301.34 302.605 300.029 302.605C298.84 302.605 297.795 302.332 296.893 301.787C295.992 301.241 295.291 300.48 294.791 299.502C294.291 298.518 294.037 297.366 294.029 296.048V284.923H299.586V294.957C299.594 295.904 299.844 296.65 300.336 297.196C300.829 297.741 301.499 298.014 302.348 298.014C302.901 298.014 303.397 297.893 303.836 297.65C304.283 297.4 304.636 297.04 304.893 296.571C305.158 296.093 305.291 295.518 305.291 294.843ZM320.544 302.377V279.105H330.158C331.9 279.105 333.404 279.446 334.669 280.127C335.942 280.802 336.923 281.745 337.612 282.957C338.302 284.162 338.647 285.563 338.647 287.162C338.647 288.768 338.294 290.173 337.59 291.377C336.893 292.574 335.897 293.502 334.601 294.162C333.306 294.821 331.768 295.15 329.987 295.15H324.056V290.718H328.942C329.79 290.718 330.499 290.571 331.067 290.275C331.643 289.98 332.078 289.567 332.374 289.037C332.669 288.499 332.817 287.874 332.817 287.162C332.817 286.442 332.669 285.821 332.374 285.298C332.078 284.768 331.643 284.359 331.067 284.071C330.491 283.783 329.783 283.639 328.942 283.639H326.169V302.377H320.544ZM348.883 302.707C347.057 302.707 345.481 302.347 344.155 301.627C342.837 300.9 341.822 299.866 341.11 298.525C340.405 297.177 340.053 295.574 340.053 293.718C340.053 291.915 340.409 290.34 341.121 288.991C341.833 287.635 342.837 286.582 344.133 285.832C345.428 285.074 346.955 284.696 348.712 284.696C349.955 284.696 351.091 284.889 352.121 285.275C353.151 285.662 354.042 286.234 354.792 286.991C355.542 287.749 356.125 288.684 356.542 289.798C356.958 290.904 357.167 292.173 357.167 293.605V294.991H341.996V291.764H351.996C351.989 291.173 351.848 290.646 351.576 290.184C351.303 289.722 350.928 289.362 350.451 289.105C349.981 288.84 349.439 288.707 348.826 288.707C348.205 288.707 347.648 288.847 347.155 289.127C346.663 289.4 346.273 289.775 345.985 290.252C345.697 290.722 345.545 291.256 345.53 291.855V295.139C345.53 295.851 345.67 296.476 345.951 297.014C346.231 297.544 346.629 297.957 347.144 298.252C347.659 298.548 348.273 298.696 348.985 298.696C349.477 298.696 349.924 298.627 350.326 298.491C350.727 298.355 351.072 298.154 351.36 297.889C351.648 297.624 351.864 297.298 352.008 296.912L357.11 297.059C356.898 298.203 356.432 299.199 355.712 300.048C355 300.889 354.064 301.544 352.905 302.014C351.746 302.476 350.405 302.707 348.883 302.707ZM369.505 284.923V289.014H358.494V284.923H369.505ZM360.8 280.741H366.357V296.889C366.357 297.23 366.41 297.506 366.516 297.718C366.63 297.923 366.793 298.071 367.005 298.162C367.217 298.245 367.471 298.287 367.766 298.287C367.978 298.287 368.202 298.268 368.437 298.23C368.679 298.184 368.861 298.146 368.982 298.116L369.823 302.127C369.558 302.203 369.183 302.298 368.698 302.412C368.221 302.525 367.649 302.597 366.982 302.627C365.679 302.688 364.562 302.537 363.63 302.173C362.706 301.802 361.997 301.226 361.505 300.446C361.02 299.665 360.785 298.684 360.8 297.502V280.741ZM391.091 286.082C391.015 285.249 390.678 284.601 390.079 284.139C389.489 283.669 388.644 283.434 387.545 283.434C386.818 283.434 386.212 283.529 385.727 283.718C385.242 283.908 384.879 284.169 384.636 284.502C384.394 284.828 384.269 285.203 384.261 285.627C384.246 285.976 384.314 286.283 384.466 286.548C384.625 286.813 384.852 287.048 385.148 287.252C385.451 287.449 385.814 287.624 386.239 287.775C386.663 287.927 387.14 288.059 387.67 288.173L389.67 288.627C390.822 288.877 391.837 289.211 392.716 289.627C393.602 290.044 394.345 290.54 394.943 291.116C395.549 291.692 396.007 292.355 396.318 293.105C396.629 293.855 396.788 294.696 396.795 295.627C396.788 297.097 396.417 298.359 395.682 299.412C394.947 300.465 393.89 301.271 392.511 301.832C391.14 302.393 389.485 302.673 387.545 302.673C385.598 302.673 383.901 302.381 382.454 301.798C381.007 301.215 379.882 300.328 379.079 299.139C378.276 297.949 377.864 296.446 377.841 294.627H383.227C383.273 295.377 383.473 296.002 383.829 296.502C384.185 297.002 384.674 297.381 385.295 297.639C385.924 297.896 386.651 298.025 387.477 298.025C388.235 298.025 388.879 297.923 389.409 297.718C389.947 297.514 390.36 297.23 390.648 296.866C390.935 296.502 391.083 296.086 391.091 295.616C391.083 295.177 390.947 294.802 390.682 294.491C390.417 294.173 390.007 293.9 389.454 293.673C388.909 293.438 388.212 293.222 387.364 293.025L384.932 292.457C382.917 291.995 381.329 291.249 380.17 290.218C379.011 289.18 378.435 287.779 378.443 286.014C378.435 284.574 378.822 283.313 379.602 282.23C380.382 281.146 381.462 280.302 382.841 279.696C384.22 279.09 385.792 278.787 387.557 278.787C389.36 278.787 390.924 279.093 392.25 279.707C393.583 280.313 394.617 281.165 395.352 282.264C396.087 283.362 396.462 284.635 396.477 286.082H391.091ZM404.841 292.423V302.377H399.284V279.105H404.659V288.127H404.852C405.246 287.052 405.89 286.211 406.784 285.605C407.686 284.999 408.788 284.696 410.091 284.696C411.318 284.696 412.386 284.968 413.296 285.514C414.205 286.052 414.909 286.813 415.409 287.798C415.917 288.783 416.167 289.934 416.159 291.252V302.377H410.602V292.343C410.61 291.374 410.368 290.616 409.875 290.071C409.383 289.525 408.69 289.252 407.796 289.252C407.212 289.252 406.697 289.381 406.25 289.639C405.811 289.889 405.466 290.249 405.216 290.718C404.974 291.188 404.849 291.756 404.841 292.423ZM427.424 302.707C425.59 302.707 424.015 302.332 422.696 301.582C421.386 300.824 420.374 299.771 419.662 298.423C418.958 297.067 418.606 295.495 418.606 293.707C418.606 291.912 418.958 290.34 419.662 288.991C420.374 287.635 421.386 286.582 422.696 285.832C424.015 285.074 425.59 284.696 427.424 284.696C429.257 284.696 430.829 285.074 432.14 285.832C433.458 286.582 434.469 287.635 435.174 288.991C435.886 290.34 436.242 291.912 436.242 293.707C436.242 295.495 435.886 297.067 435.174 298.423C434.469 299.771 433.458 300.824 432.14 301.582C430.829 302.332 429.257 302.707 427.424 302.707ZM427.458 298.514C428.124 298.514 428.689 298.309 429.151 297.9C429.613 297.491 429.965 296.923 430.208 296.196C430.458 295.468 430.583 294.627 430.583 293.673C430.583 292.703 430.458 291.855 430.208 291.127C429.965 290.4 429.613 289.832 429.151 289.423C428.689 289.014 428.124 288.809 427.458 288.809C426.768 288.809 426.185 289.014 425.708 289.423C425.238 289.832 424.878 290.4 424.628 291.127C424.386 291.855 424.265 292.703 424.265 293.673C424.265 294.627 424.386 295.468 424.628 296.196C424.878 296.923 425.238 297.491 425.708 297.9C426.185 298.309 426.768 298.514 427.458 298.514ZM438.736 308.923V284.923H444.236V287.912H444.407C444.634 287.381 444.956 286.87 445.373 286.377C445.797 285.885 446.335 285.484 446.986 285.173C447.646 284.855 448.433 284.696 449.35 284.696C450.562 284.696 451.695 285.014 452.748 285.65C453.808 286.287 454.664 287.268 455.316 288.593C455.968 289.919 456.293 291.609 456.293 293.662C456.293 295.639 455.979 297.294 455.35 298.627C454.729 299.961 453.888 300.961 452.827 301.627C451.774 302.294 450.604 302.627 449.316 302.627C448.437 302.627 447.676 302.484 447.032 302.196C446.388 301.908 445.846 301.529 445.407 301.059C444.975 300.59 444.642 300.086 444.407 299.548H444.293V308.923H438.736ZM444.18 293.65C444.18 294.59 444.305 295.408 444.555 296.105C444.812 296.802 445.18 297.343 445.657 297.73C446.142 298.109 446.721 298.298 447.396 298.298C448.077 298.298 448.657 298.109 449.134 297.73C449.611 297.343 449.971 296.802 450.214 296.105C450.464 295.408 450.589 294.59 450.589 293.65C450.589 292.711 450.464 291.896 450.214 291.207C449.971 290.518 449.611 289.984 449.134 289.605C448.664 289.226 448.085 289.037 447.396 289.037C446.714 289.037 446.134 289.222 445.657 289.593C445.18 289.965 444.812 290.495 444.555 291.184C444.305 291.874 444.18 292.696 444.18 293.65Z" fill="white"/>
    <path d="M561.09 338.429C570.272 341.607 589.248 353.035 591.211 373.323C603.36 371.129 634.546 372.696 643.23 406.485C647.691 439.233 627.224 502.129 511.959 496.053C485.62 455.489 466.301 343.119 540.127 338.429" stroke="white" stroke-width="12" stroke-linecap="round"/>
    <path d="M591.327 423.854C587.867 426.559 584.06 427.815 580.812 427.82C577.564 427.824 575.15 426.613 573.772 424.716C572.394 422.818 571.938 420.076 572.837 416.838C573.736 413.599 575.949 410.147 579.408 407.441C582.868 404.735 586.676 403.479 589.924 403.475C593.171 403.471 595.586 404.682 596.964 406.579C598.341 408.476 598.798 411.219 597.899 414.457C597 417.696 594.787 421.148 591.327 423.854Z" stroke="white" stroke-width="8"/>
    <path d="M569.649 401.11C568.14 405.324 565.583 408.513 562.848 410.335C560.112 412.157 557.449 412.488 555.305 411.665C553.161 410.842 551.349 408.793 550.422 405.565C549.495 402.337 549.564 398.193 551.073 393.979C552.582 389.765 555.138 386.576 557.874 384.754C560.61 382.932 563.273 382.601 565.417 383.424C567.561 384.247 569.372 386.295 570.3 389.523C571.227 392.751 571.158 396.895 569.649 401.11Z" stroke="white" stroke-width="8"/>
    <path d="M539.537 407.883C539.408 411.189 538.316 413.987 536.842 415.85C535.37 417.712 533.707 418.455 532.236 418.396C530.765 418.337 529.165 417.462 527.843 415.487C526.519 413.511 525.648 410.635 525.777 407.328C525.906 404.022 526.998 401.225 528.471 399.361C529.943 397.5 531.606 396.756 533.077 396.816C534.548 396.875 536.148 397.75 537.471 399.724C538.795 401.7 539.665 404.577 539.537 407.883Z" stroke="white" stroke-width="8"/>
    <path d="M586.441 452.218C583.364 453.069 580.472 452.818 578.325 451.912C576.181 451.007 575.001 449.578 574.62 448.09C574.24 446.602 574.581 444.752 576.009 442.858C577.438 440.962 579.828 439.249 582.905 438.397C585.982 437.545 588.874 437.796 591.021 438.703C593.165 439.608 594.345 441.037 594.726 442.525C595.106 444.013 594.765 445.863 593.337 447.757C591.908 449.653 589.518 451.366 586.441 452.218Z" stroke="white" stroke-width="8"/>
    <path d="M545.83 467.748C541.207 466.107 538.19 460.097 536.24 458.744C534.289 457.39 529.269 457.636 525.89 454.889C521.523 451.339 519.43 449.45 519.237 441.866C519.033 433.882 523.157 429.521 530.777 428.367C533.112 428.013 536.896 429.432 539.052 428.436C541.623 427.248 543.664 423.819 545.904 421.854C548.718 419.385 552.605 419.985 555.614 421.079C558.81 422.24 561.802 424.132 564.07 426.74C567.156 430.29 567.056 433.547 566.839 436.38C566.554 440.092 563.136 443.269 562.978 445.037C562.788 447.155 564.022 447.408 564.921 449.318C570.794 461.8 560.186 466.044 560.186 466.044" stroke="white" stroke-width="8" stroke-linecap="round"/>
    <path d="M182.926 407.803C172.579 409.53 159.853 414.091 149.267 419.763C120.008 435.421 89.0845 469.326 79.5695 496.204C76.4771 504.958 76.1203 507.423 76.1203 520.739C76.1203 534.178 76.3582 536.15 79.3316 542.562C80.9967 546.384 84.6838 551.932 87.3005 555.014C92.4148 560.809 104.428 568.206 108.709 568.206C110.137 568.206 111.207 568.7 111.207 569.316C111.207 570.056 107.758 577.823 103.476 586.823C95.2693 604.084 94.3178 608.646 98.1238 612.591C101.097 615.674 107.758 615.92 110.255 612.838C111.207 611.728 115.608 603.345 119.889 594.344C141.774 548.85 173.411 505.081 201.243 481.779C261.425 431.722 354.435 447.627 396.658 515.437L401.177 522.465L396.539 527.643C394.041 530.479 389.878 537.26 387.262 542.808C375.249 567.96 374.416 593.728 384.883 615.181L388.57 622.825L384.288 635.894C376.319 661.045 375.844 687.676 383.218 711.718C387.856 727.006 396.896 744.637 404.627 753.268L407.362 756.35L399.631 763.501C381.672 780.022 366.448 805.297 358.241 832.668C352.532 851.655 350.986 862.258 350.867 882.724V901.958L354.673 909.479L358.479 917.123H328.744H299.129L302.816 910.588C321.251 878.286 331.242 834.27 331.242 785.817C331.242 767.569 330.053 761.282 326.484 759.309C323.154 757.46 318.635 757.829 315.899 760.172C313.639 762.268 313.401 763.994 312.926 789.515C311.855 841.791 303.173 876.066 283.31 907.629L277.244 917.123H255.003H232.643L231.81 910.095C231.334 906.15 231.334 889.012 231.81 872.121C232.88 827.613 236.567 795.557 242.633 775.583C245.845 764.98 245.131 760.912 239.541 758.816C231.453 755.857 227.766 760.419 223.246 779.652C217.062 805.174 214.326 836.12 214.207 881.615L214.088 917.123H197.199H180.191L176.504 911.944C167.227 898.752 159.139 877.793 154.976 856.463C152.716 844.504 152.241 838.832 152.359 816.023C152.359 797.406 152.954 786.063 154.381 778.049C156.284 766.213 156.165 763.994 153.073 760.172C151.051 757.829 145.58 757.336 142.131 759.309C137.849 761.775 135.232 776.693 134.162 806.16C132.735 845.983 139.514 881.984 153.43 908.122C155.69 912.438 157.593 916.26 157.593 916.506C157.593 917.986 128.929 916.876 122.03 915.273C97.767 909.232 77.9044 888.272 72.3143 862.628C69.4598 849.559 69.4598 791.488 72.3143 766.706C76.9529 726.76 85.1596 687.43 95.745 655.25C100.265 641.318 100.384 637.003 96.2208 633.674C88.0141 627.017 83.6134 632.195 76.3582 656.977C59.9447 713.444 51.738 767.816 51.738 818.982C51.857 868.669 57.566 888.642 77.9044 909.725C88.133 920.328 98.2427 926.863 111.802 931.671L121.317 935H347.893H574.47L582.201 931.178C591.716 926.493 599.923 918.232 604.442 908.739C607.416 902.451 607.772 900.108 608.129 887.533C608.605 869.902 605.988 851.285 602.539 847.709C599.566 844.504 593.738 844.504 590.408 847.586C588.148 849.682 588.029 850.792 588.623 857.326C588.98 861.395 589.694 871.628 590.051 880.135C590.883 897.643 589.813 901.588 581.963 909.355C575.659 915.643 569.95 917.123 551.158 917.123H534.626L536.885 911.081C542.595 896.163 545.092 868.792 542.595 847.586C540.929 834.394 534.269 829.462 526.776 836.12L523.564 838.956L524.992 853.504C527.252 875.697 524.516 896.41 517.38 910.835L514.406 917.123H501.323H488.24V878.286V839.325L485.266 836.366C481.579 832.421 477.06 832.421 473.373 836.366L470.399 839.325V878.286V917.123H457.316H444.233L441.735 911.944C434.123 896.41 431.269 876.806 433.529 854.737C434.718 842.161 434.718 840.188 433.053 837.599C429.604 832.174 421.992 832.051 418.661 837.353C416.283 841.175 414.142 865.217 415.093 877.669C416.045 889.752 418.542 902.821 421.754 911.205L424.013 917.123H407.481C388.689 917.123 382.98 915.643 376.676 909.355C369.778 902.451 367.875 897.273 367.994 884.82C368.232 854.737 377.747 822.434 393.328 799.132C399.75 789.515 411.763 776.077 417.234 772.255C420.207 770.282 420.445 770.282 426.63 775.09C440.784 786.187 460.052 794.57 477.773 797.529C483.601 798.516 492.997 798.886 503.345 798.392C520.71 797.776 532.366 795.064 547.233 788.283L554.013 785.2L556.986 787.913C560.911 791.735 571.853 809.119 575.421 817.01C579.465 825.887 581.844 828.352 586.483 828.352C590.764 828.352 595.284 823.791 595.284 819.352C595.284 815.653 583.866 793.831 576.73 783.967L570.307 775.09L580.774 764.487C599.685 745.007 609.794 725.527 615.979 696.183C616.455 693.841 618.596 691.868 623.472 689.032C641.789 678.306 654.753 658.086 659.035 633.551C663.079 610.126 660.581 599.892 648.568 591.509C627.992 576.96 603.134 571.782 581.963 577.33L574.113 579.426L567.69 574.494C549.017 559.699 520.234 550.452 495.019 551.069L483.363 551.439L480.033 547.123C476.703 543.055 476.584 542.438 475.989 524.438C475.276 503.478 473.492 494.478 467.069 480.792C459.1 463.778 445.065 452.312 426.749 447.873C411.525 444.175 383.575 447.134 364.664 454.408C362.523 455.271 359.787 454.408 351.58 450.216C329.815 438.873 312.331 434.681 284.618 434.435L263.566 434.188L256.073 428.393C246.677 420.996 232.167 413.721 220.63 410.393C210.639 407.557 192.204 406.324 182.926 407.803ZM216.229 428.27C223.246 430.119 241.206 438.75 240.255 439.736C240.017 439.983 236.211 441.585 231.929 443.065C211.234 450.586 192.085 463.655 173.649 482.765C161.161 495.711 143.558 518.273 131.664 536.397C122.268 550.699 120.127 552.302 111.802 549.836C102.168 547.123 94.5557 537.013 92.7716 524.931C90.3928 508.41 104.19 481.409 125.836 460.079C145.699 440.599 165.324 429.503 186.732 425.927C192.798 424.941 208.974 426.174 216.229 428.27ZM425.917 466.49C444.471 472.162 456.484 491.395 458.149 518.15C458.862 528.63 458.743 529.123 456.602 528.26C446.493 524.191 436.026 521.232 428.89 520.616C421.278 519.876 420.089 519.383 418.304 516.547C408.789 500.396 401.653 490.656 392.257 480.792C386.191 474.381 381.315 468.956 381.553 468.833C381.791 468.586 385.121 467.6 389.046 466.614C398.561 464.271 418.423 464.148 425.917 466.49ZM442.33 542.685C450.18 545.767 463.977 554.398 462.787 555.631C462.43 555.877 457.911 557.973 452.796 560.069C434.718 567.713 418.067 580.412 404.865 596.933L399.155 603.961L397.252 597.55C392.852 581.892 396.182 563.028 406.53 544.904L410.336 538.37L422.229 538.986C431.031 539.356 436.264 540.342 442.33 542.685ZM522.732 572.645C540.335 577.207 560.554 589.782 572.21 603.098C590.526 624.058 599.328 647.976 599.209 676.087C599.09 694.457 596.473 705.8 588.148 723.184C575.897 748.952 551.039 769.912 524.04 777.186C503.94 782.611 484.553 781.995 465.642 775.337C417.591 758.569 387.856 707.033 397.134 656.73C405.459 612.098 438.167 578.933 481.936 570.672C490.143 569.069 513.693 570.179 522.732 572.645ZM616.693 596.194C624.067 598.29 633.463 602.851 639.053 607.29C642.621 610.002 642.859 610.742 642.859 617.277C642.74 634.907 636.08 652.908 625.256 664.251L618.715 671.155L617.882 667.456C617.406 665.36 616.336 659.442 615.622 654.141C613.006 636.757 604.442 615.797 593.976 601.372L589.218 594.714L593.738 593.974C599.685 592.988 608.486 593.851 616.693 596.194Z" fill="white"/>
    <path d="M434.956 630.715C432.22 633.181 428.771 644.154 428.771 650.442C428.771 658.209 437.216 662.278 442.806 657.223C445.303 655.127 448.99 642.921 448.99 637.003C448.99 633.181 444.352 628.619 440.427 628.619C438.762 628.619 436.264 629.606 434.956 630.715Z" fill="white"/>
    <path d="M563.528 663.758C560.435 665.114 559.484 666.593 557.819 672.635C556.748 676.58 555.559 680.772 555.321 682.005C553.418 688.539 560.911 695.32 567.215 692.855C570.664 691.375 572.567 687.676 575.184 676.95C576.611 671.032 576.492 670.292 574.351 667.21C571.14 662.895 567.928 661.785 563.528 663.758Z" fill="white"/>
    <path d="M461.717 670.785C460.646 671.648 459.219 673.991 458.505 675.84C452.796 691.992 469.686 710.855 486.099 706.54C490.738 705.307 491.451 705.43 494.187 708.143C506.794 720.595 528.679 714.677 533.555 697.54C534.864 693.224 534.745 692.238 532.604 689.279C528.322 683.361 519.996 684.101 517.38 690.759C513.693 699.882 504.891 697.663 504.891 687.676C504.891 676.087 492.046 672.758 487.764 683.361C485.742 688.539 482.055 690.019 478.13 687.306C475.751 685.704 475.157 684.224 475.157 679.786C475.157 675.84 474.443 673.498 472.778 671.772C470.042 668.936 464.69 668.566 461.717 670.785Z" fill="white"/>
    <path d="M207.903 520.369C205.049 521.849 203.741 524.684 201.124 535.287C198.626 545.891 201.124 550.945 208.736 550.945C214.326 550.945 216.348 548.603 218.727 539.109C221.462 528.136 221.224 524.438 217.537 521.479C214.088 518.643 211.828 518.396 207.903 520.369Z" fill="white"/>
    <path d="M260.712 553.658C254.527 558.713 257.5 570.549 265.112 570.672C267.015 570.672 267.134 571.289 266.421 575.234C265.231 582.508 262.853 585.467 258.214 585.467C252.862 585.467 250.364 582.262 250.364 575.357C250.364 568.7 246.796 564.508 241.206 564.508C235.616 564.508 232.523 569.193 232.523 577.7C232.523 588.426 237.4 596.564 247.034 601.618C251.791 604.084 261.306 604.701 266.183 602.851C268.562 601.865 269.632 602.235 271.892 604.824C282.358 616.414 302.578 614.934 311.379 601.988C313.163 599.276 314.947 595.084 315.304 592.618C315.899 588.796 315.542 587.563 312.925 584.851C308.168 579.919 303.291 580.905 298.534 587.933C295.442 592.495 294.014 593.604 290.446 593.851C284.499 594.344 281.645 590.152 283.191 582.632C284.261 577.453 284.261 577.453 289.851 577.083C294.252 576.837 296.036 575.974 297.939 573.508C303.886 565.617 299.367 560.932 281.288 555.877C266.064 551.809 263.566 551.439 260.712 553.658Z" fill="white"/>
    <path d="M347.061 559.823C345.633 561.425 343.73 566.727 342.422 572.275C340.4 581.645 340.4 581.892 342.779 585.221C344.325 587.317 346.466 588.673 348.845 588.919C354.554 589.536 357.884 585.221 360.501 574.001C362.642 564.631 362.523 564.384 360.144 561.055C356.932 556.494 350.629 555.877 347.061 559.823Z" fill="white"/>
    <path d="M195.754 58.8C203.882 58.8 209.93 60.208 213.898 63.024C217.866 65.84 219.85 70.96 219.85 78.384C219.85 84.592 217.93 89.776 214.09 93.936C210.25 98.032 204.106 100.08 195.658 100.08C192.906 100.08 190.73 100.048 189.13 99.984L188.938 116.88L195.946 117.648C195.946 120.464 195.21 123.248 193.738 126H170.026L169.162 120.72C172.49 119.376 175.178 118.448 177.226 117.936C177.226 117.744 176.938 100.816 176.362 67.152C175.338 66.896 172.682 66.064 168.394 64.656L169.162 58.8H195.754ZM193.642 90.96C197.93 90.896 201.258 89.712 203.626 87.408C205.994 85.104 207.178 82.128 207.178 78.48C207.178 74.832 206.122 72.24 204.01 70.704C201.962 69.104 198.73 68.304 194.314 68.304C192.586 68.304 190.954 68.336 189.418 68.4C189.29 78.512 189.226 86.064 189.226 91.056L193.642 90.96ZM247.155 117.744C249.331 117.744 253.747 116.24 260.403 113.232C261.811 115.28 262.867 117.648 263.571 120.336C260.051 122.512 256.595 124.208 253.203 125.424C249.875 126.576 247.507 127.152 246.099 127.152C238.355 127.152 232.467 125.008 228.435 120.72C224.467 116.432 222.483 110.352 222.483 102.48C222.483 94.544 224.467 88.176 228.435 83.376C232.403 78.512 238.291 76.08 246.099 76.08C252.307 76.08 257.043 78.096 260.307 82.128C263.571 86.16 265.203 91.408 265.203 97.872C265.203 99.216 264.435 100.752 262.899 102.48L235.251 102C235.379 107.12 236.339 111.024 238.131 113.712C239.923 116.4 242.931 117.744 247.155 117.744ZM245.235 84.048C242.803 84.048 240.531 84.528 238.419 85.488C236.947 88.56 236.019 91.408 235.635 94.032C240.627 93.84 246.291 93.712 252.627 93.648C252.307 87.248 249.843 84.048 245.235 84.048ZM281.304 127.152L279.192 127.056C278.808 126.352 278.296 125.04 277.656 123.12C277.016 121.2 276.664 119.76 276.6 118.8C276.28 112.464 275.928 101.488 275.544 85.872H268.824L269.112 80.4C270.584 79.376 272.344 78.448 274.392 77.616L282.168 65.328C284.664 65.584 286.616 66.256 288.024 67.344L287.928 76.464C291.96 76.592 295.704 76.976 299.16 77.616C299.16 80.176 298.36 82.928 296.76 85.872H287.832C287.576 99.312 287.416 109.392 287.352 116.112C289.912 116.368 293.4 117.104 297.816 118.32L297.72 123.312C296.632 124.016 294.2 124.848 290.424 125.808C286.712 126.704 283.672 127.152 281.304 127.152ZM202.726 140.496L199.75 140.4L196.966 128.88C193.254 128.24 190.47 127.92 188.614 127.92C184.966 127.92 180.87 128.656 176.326 130.128C174.982 132.624 173.926 135.824 173.158 139.728C172.39 143.632 172.006 147.312 172.006 150.768C172.006 168.432 177.094 177.264 187.27 177.264C191.622 177.264 195.078 176.624 197.638 175.344L199.654 163.632C203.686 163.632 206.758 163.856 208.87 164.304C209.894 171.28 210.406 176.944 210.406 181.296C208.87 182.448 205.766 183.728 201.094 185.136C196.486 186.544 191.942 187.248 187.462 187.248C168.39 187.248 158.854 175.472 158.854 151.92C158.854 140.72 161.158 132.208 165.766 126.384C170.438 120.56 177.862 117.648 188.038 117.648C193.094 117.648 197.574 118.384 201.478 119.856C204.934 121.136 207.878 122.544 210.31 124.08C210.31 128.432 209.83 133.68 208.87 139.824C207.078 140.272 205.03 140.496 202.726 140.496ZM240.916 143.76C238.612 143.76 235.988 144.336 233.044 145.488C232.212 146.768 231.412 149.04 230.644 152.304C229.94 155.504 229.588 158.736 229.588 162C229.588 168.016 230.484 172.304 232.276 174.864C234.068 177.36 236.948 178.608 240.916 178.608C244.948 178.608 247.86 177.36 249.652 174.864C251.444 172.304 252.34 167.952 252.34 161.808C252.34 155.6 251.412 151.056 249.556 148.176C247.764 145.232 244.884 143.76 240.916 143.76ZM240.916 136.08C248.404 136.08 254.42 138.384 258.964 142.992C263.572 147.536 265.876 153.904 265.876 162.096C265.876 170.224 263.604 176.432 259.06 180.72C254.516 185.008 248.468 187.152 240.916 187.152C233.364 187.152 227.316 185.008 222.772 180.72C218.292 176.432 216.052 170.224 216.052 162.096C216.052 153.904 218.324 147.536 222.868 142.992C227.412 138.384 233.428 136.08 240.916 136.08ZM298.141 136.08C304.541 136.08 309.181 137.648 312.061 140.784C314.941 143.92 316.381 148.304 316.381 153.936C316.381 159.568 316.061 167.184 315.421 176.784L323.005 177.648C323.005 180.272 322.269 183.056 320.797 186H296.893L296.029 180.72C299.037 179.504 301.821 178.544 304.381 177.84C304.189 170.48 303.997 164.304 303.805 159.312C303.613 154.256 303.133 150.832 302.365 149.04C301.597 147.248 299.901 146.352 297.277 146.352C293.309 146.352 289.757 147.056 286.621 148.464C286.557 151.216 286.365 155.728 286.045 162C285.789 168.208 285.629 173.136 285.565 176.784L293.053 177.648C293.053 180.272 292.317 183.056 290.845 186H266.941L266.077 180.72C269.277 179.504 272.157 178.544 274.717 177.84C274.653 174 274.429 168.688 274.045 161.904C273.725 155.12 273.533 150.096 273.469 146.832C271.101 146.576 268.573 146.096 265.885 145.392L266.365 138.48C270.845 137.264 275.901 136.656 281.533 136.656C282.237 137.104 283.197 138.48 284.413 140.784C286.589 139.696 289.245 138.64 292.381 137.616C295.517 136.592 297.437 136.08 298.141 136.08ZM356.241 136.08C362.641 136.08 367.281 137.648 370.161 140.784C373.041 143.92 374.481 148.304 374.481 153.936C374.481 159.568 374.161 167.184 373.521 176.784L381.105 177.648C381.105 180.272 380.369 183.056 378.897 186H354.993L354.129 180.72C357.137 179.504 359.921 178.544 362.481 177.84C362.289 170.48 362.097 164.304 361.905 159.312C361.713 154.256 361.233 150.832 360.465 149.04C359.697 147.248 358.001 146.352 355.377 146.352C351.409 146.352 347.857 147.056 344.721 148.464C344.657 151.216 344.465 155.728 344.145 162C343.889 168.208 343.729 173.136 343.665 176.784L351.153 177.648C351.153 180.272 350.417 183.056 348.945 186H325.041L324.177 180.72C327.377 179.504 330.257 178.544 332.817 177.84C332.753 174 332.529 168.688 332.145 161.904C331.825 155.12 331.633 150.096 331.569 146.832C329.201 146.576 326.673 146.096 323.985 145.392L324.465 138.48C328.945 137.264 334.001 136.656 339.633 136.656C340.337 137.104 341.297 138.48 342.513 140.784C344.689 139.696 347.345 138.64 350.481 137.616C353.617 136.592 355.537 136.08 356.241 136.08ZM407.909 177.744C410.085 177.744 414.501 176.24 421.157 173.232C422.565 175.28 423.621 177.648 424.325 180.336C420.805 182.512 417.349 184.208 413.957 185.424C410.629 186.576 408.261 187.152 406.853 187.152C399.109 187.152 393.221 185.008 389.189 180.72C385.221 176.432 383.237 170.352 383.237 162.48C383.237 154.544 385.221 148.176 389.189 143.376C393.157 138.512 399.045 136.08 406.853 136.08C413.061 136.08 417.797 138.096 421.061 142.128C424.325 146.16 425.957 151.408 425.957 157.872C425.957 159.216 425.189 160.752 423.653 162.48L396.005 162C396.133 167.12 397.093 171.024 398.885 173.712C400.677 176.4 403.685 177.744 407.909 177.744ZM405.989 144.048C403.557 144.048 401.285 144.528 399.173 145.488C397.701 148.56 396.773 151.408 396.389 154.032C401.381 153.84 407.045 153.712 413.381 153.648C413.061 147.248 410.597 144.048 405.989 144.048ZM456.938 144.048L455.402 143.952C451.818 143.952 448.938 145.2 446.762 147.696C444.65 150.128 443.594 154.256 443.594 160.08C443.594 165.84 444.394 170.224 445.994 173.232C447.658 176.24 450.826 177.744 455.498 177.744C457.674 177.744 462.282 176.272 469.322 173.328C470.922 175.568 471.786 177.904 471.914 180.336C468.394 182.512 464.938 184.208 461.546 185.424C458.218 186.64 455.85 187.248 454.442 187.248C446.57 187.248 440.682 185.104 436.778 180.816C432.874 176.464 430.922 170.384 430.922 162.576C430.922 144.912 438.89 136.08 454.826 136.08C457.578 136.08 460.394 136.432 463.274 137.136C466.218 137.776 468.522 138.608 470.186 139.632C469.994 146.032 469.29 150.672 468.074 153.552C465.962 154.064 462.986 154.32 459.146 154.32L456.938 144.048ZM486.283 187.152L484.171 187.056C483.787 186.352 483.275 185.04 482.635 183.12C481.995 181.2 481.643 179.76 481.579 178.8C481.259 172.464 480.907 161.488 480.523 145.872H473.803L474.091 140.4C475.563 139.376 477.323 138.448 479.371 137.616L487.147 125.328C489.643 125.584 491.595 126.256 493.003 127.344L492.907 136.464C496.939 136.592 500.683 136.976 504.139 137.616C504.139 140.176 503.339 142.928 501.739 145.872H492.811C492.555 159.312 492.395 169.392 492.331 176.112C494.891 176.368 498.379 177.104 502.795 178.32L502.699 183.312C501.611 184.016 499.179 184.848 495.403 185.808C491.691 186.704 488.651 187.152 486.283 187.152Z" fill="white"/>
    <path d="M344.823 80.496L341.847 80.4L339.063 68.88C335.351 68.24 332.567 67.92 330.711 67.92C327.063 67.92 322.967 68.656 318.423 70.128C317.079 72.624 316.023 75.824 315.255 79.728C314.487 83.632 314.103 87.312 314.103 90.768C314.103 108.432 319.191 117.264 329.367 117.264C333.719 117.264 337.175 116.624 339.735 115.344L341.751 103.632C345.783 103.632 348.855 103.856 350.967 104.304C351.991 111.28 352.503 116.944 352.503 121.296C350.967 122.448 347.863 123.728 343.191 125.136C338.583 126.544 334.039 127.248 329.559 127.248C310.487 127.248 300.951 115.472 300.951 91.92C300.951 80.72 303.255 72.208 307.863 66.384C312.535 60.56 319.959 57.648 330.135 57.648C335.191 57.648 339.671 58.384 343.575 59.856C347.031 61.136 349.975 62.544 352.407 64.08C352.407 68.432 351.927 73.68 350.967 79.824C349.175 80.272 347.127 80.496 344.823 80.496Z" fill="#ED6E9F"/>
    <path d="M375.718 127.152C370.278 127.152 366.054 126.032 363.046 123.792C360.102 121.552 358.63 117.776 358.63 112.464C358.63 107.408 360.39 103.28 363.91 100.08C365.958 98.224 368.806 97.136 372.454 96.816C376.102 96.496 381.126 96.336 387.526 96.336V94.8C387.526 90.896 386.886 88.048 385.606 86.256C384.39 84.4 382.214 83.472 379.078 83.472C377.478 83.472 376.038 83.792 374.758 84.432L372.454 92.784L365.35 92.592C363.75 90.16 362.886 86.288 362.758 80.976C364.038 80.336 367.046 79.376 371.782 78.096C376.518 76.752 379.558 76.08 380.902 76.08C387.814 76.08 392.838 77.52 395.974 80.4C399.11 83.216 400.678 87.728 400.678 93.936C400.678 100.08 400.39 108.208 399.814 118.32C403.462 118.64 406.278 119.184 408.262 119.952C408.326 120.72 408.358 121.648 408.358 122.736L408.262 124.848C403.654 126.384 399.014 127.152 394.342 127.152C393.126 127.152 392.23 127.12 391.654 127.056C390.694 125.136 390.118 122.832 389.926 120.144H389.446C388.23 121.296 386.086 122.768 383.014 124.56C380.006 126.288 377.574 127.152 375.718 127.152ZM370.918 113.04C370.918 115.152 371.558 116.72 372.838 117.744C374.182 118.704 375.686 119.184 377.35 119.184C379.014 119.184 380.998 118.448 383.302 116.976C385.606 115.44 387.462 114.064 388.87 112.848L388.39 104.016C383.334 104.272 379.526 104.752 376.966 105.456C372.934 106.288 370.918 108.816 370.918 113.04Z" fill="#389BF2"/>
    <path d="M436.684 86.448C436.556 86.128 435.916 85.968 434.764 85.968C433.612 85.968 431.628 86.832 428.812 88.56C428.556 101.104 428.396 110.512 428.332 116.784L435.82 117.744C435.82 120.496 435.084 123.248 433.612 126H409.708L408.844 120.72C412.812 119.248 415.692 118.288 417.484 117.84L416.428 86.736C413.1 86.48 410.316 86 408.076 85.296L408.748 78.384C410.476 77.616 416.716 77.104 427.468 76.848C428.044 77.424 428.332 78.544 428.332 80.208C433.964 77.456 437.516 76.08 438.988 76.08C440.524 76.08 442.38 76.464 444.556 77.232C446.796 77.936 448.492 78.704 449.644 79.536V81.168C449.644 86.416 449.004 91.28 447.724 95.76C446.636 96.208 445.196 96.432 443.404 96.432C441.612 96.432 439.948 96.336 438.412 96.144C438.22 95.312 437.644 92.08 436.684 86.448Z" fill="#00E096"/>
    <path d="M475.969 117.744C478.145 117.744 482.561 116.24 489.217 113.232C490.625 115.28 491.681 117.648 492.385 120.336C488.865 122.512 485.409 124.208 482.017 125.424C478.689 126.576 476.321 127.152 474.913 127.152C467.169 127.152 461.281 125.008 457.249 120.72C453.281 116.432 451.297 110.352 451.297 102.48C451.297 94.544 453.281 88.176 457.249 83.376C461.217 78.512 467.105 76.08 474.913 76.08C481.121 76.08 485.857 78.096 489.121 82.128C492.385 86.16 494.017 91.408 494.017 97.872C494.017 99.216 493.249 100.752 491.713 102.48L464.065 102C464.193 107.12 465.153 111.024 466.945 113.712C468.737 116.4 471.745 117.744 475.969 117.744ZM474.049 84.048C471.617 84.048 469.345 84.528 467.233 85.488C465.761 88.56 464.833 91.408 464.449 94.032C469.441 93.84 475.105 93.712 481.441 93.648C481.121 87.248 478.657 84.048 474.049 84.048Z" fill="#56A7F0"/>
    </svg>
    