<svg width="612" height="619" viewBox="0 0 612 619" fill="none" xmlns="http://www.w3.org/2000/svg">
<path d="M510.089 22.4288C519.272 25.607 538.248 37.035 540.21 57.3226C552.359 55.1295 583.545 56.6961 592.23 90.485C596.691 123.233 576.224 186.129 460.959 180.053C434.62 139.489 415.3 27.1193 489.126 22.4288" stroke="white" stroke-width="12" stroke-linecap="round"/>
<path d="M540.327 107.854C536.867 110.559 533.06 111.815 529.812 111.82C526.564 111.824 524.15 110.613 522.772 108.716C521.394 106.818 520.938 104.076 521.837 100.838C522.736 97.5989 524.949 94.1467 528.408 91.4411C531.868 88.7354 535.676 87.4793 538.924 87.475C542.171 87.4706 544.586 88.6818 545.964 90.5791C547.341 92.4763 547.798 95.2186 546.899 98.4572C546 101.696 543.787 105.148 540.327 107.854Z" stroke="white" stroke-width="8"/>
<path d="M518.649 85.1096C517.14 89.3238 514.583 92.5129 511.848 94.3348C509.112 96.157 506.449 96.488 504.305 95.6649C502.16 94.8419 500.349 92.7934 499.422 89.5651C498.494 86.3371 498.563 82.1932 500.072 77.9789C501.581 73.7647 504.138 70.5756 506.874 68.7537C509.609 66.9316 512.272 66.6005 514.417 67.4236C516.561 68.2467 518.372 70.2952 519.299 73.5234C520.227 76.7514 520.158 80.8954 518.649 85.1096Z" stroke="white" stroke-width="8"/>
<path d="M488.536 91.8832C488.408 95.1893 487.316 97.987 485.842 99.8502C484.37 101.712 482.707 102.455 481.236 102.396C479.765 102.337 478.165 101.462 476.842 99.4873C475.519 97.5114 474.648 94.6346 474.777 91.3284C474.906 88.0223 475.997 85.2246 477.471 83.3615C478.943 81.4997 480.606 80.7564 482.077 80.8157C483.548 80.8751 485.148 81.7498 486.471 83.7243C487.795 85.7002 488.665 88.5771 488.536 91.8832Z" stroke="white" stroke-width="8"/>
<path d="M535.441 136.218C532.364 137.069 529.472 136.818 527.325 135.912C525.181 135.007 524.001 133.578 523.62 132.09C523.239 130.602 523.58 128.752 525.008 126.858C526.438 124.962 528.828 123.249 531.905 122.397C534.981 121.545 537.874 121.796 540.02 122.703C542.165 123.608 543.345 125.037 543.725 126.525C544.106 128.013 543.765 129.863 542.337 131.757C540.908 133.653 538.518 135.366 535.441 136.218Z" stroke="white" stroke-width="8"/>
<path d="M494.83 151.748C490.207 150.107 487.19 144.097 485.239 142.744C483.289 141.39 478.269 141.636 474.89 138.889C470.523 135.339 468.43 133.45 468.237 125.866C468.033 117.882 472.157 113.521 479.777 112.367C482.112 112.014 485.896 113.432 488.052 112.436C490.623 111.248 492.664 107.819 494.904 105.854C497.718 103.385 501.605 103.985 504.613 105.079C507.81 106.24 510.802 108.132 513.07 110.74C516.156 114.29 516.056 117.547 515.839 120.38C515.554 124.092 512.136 127.269 511.978 129.037C511.788 131.155 513.022 131.408 513.921 133.318C519.794 145.8 509.186 150.044 509.186 150.044" stroke="white" stroke-width="8" stroke-linecap="round"/>
<path d="M131.926 91.8035C121.579 93.5295 108.852 98.0914 98.267 103.763C69.0083 119.421 38.0845 153.326 28.5694 180.204C25.477 188.958 25.1202 191.423 25.1202 204.739C25.1202 218.178 25.3581 220.15 28.3316 226.562C29.9967 230.384 33.6838 235.932 36.3004 239.014C41.4147 244.809 53.4274 252.206 57.7092 252.206C59.1365 252.206 60.2069 252.7 60.2069 253.316C60.2069 254.056 56.7577 261.823 52.4759 270.823C44.2692 288.084 43.3177 292.646 47.1237 296.591C50.0972 299.674 56.7577 299.92 59.2554 296.838C60.2069 295.728 64.6076 287.345 68.8894 278.344C90.7739 232.85 122.411 189.081 150.243 165.779C210.425 115.722 303.435 131.627 345.658 199.437L350.177 206.465L345.539 211.643C343.041 214.479 338.878 221.26 336.262 226.808C324.249 251.96 323.416 277.728 333.883 299.181L337.57 306.825L333.288 319.894C325.319 345.045 324.844 371.676 332.218 395.718C336.856 411.006 345.896 428.637 353.627 437.268L356.362 440.35L348.631 447.501C330.672 464.022 315.448 489.297 307.241 516.668C301.532 535.655 299.986 546.258 299.867 566.724V585.958L303.673 593.479L307.479 601.123H277.744H248.129L251.816 594.588C270.251 562.286 280.242 518.27 280.242 469.817C280.242 451.569 279.053 445.282 275.484 443.309C272.154 441.46 267.634 441.829 264.899 444.172C262.639 446.268 262.401 447.994 261.925 473.515C260.855 525.791 252.173 560.066 232.31 591.629L226.244 601.123H204.003H181.642L180.81 594.095C180.334 590.15 180.334 573.012 180.81 556.121C181.88 511.613 185.567 479.557 191.633 459.583C194.845 448.98 194.131 444.912 188.541 442.816C180.453 439.857 176.766 444.419 172.246 463.652C166.062 489.174 163.326 520.12 163.207 565.615L163.088 601.123H146.199H129.191L125.504 595.944C116.227 582.752 108.139 561.793 103.976 540.463C101.716 528.504 101.24 522.832 101.359 500.023C101.359 481.406 101.954 470.063 103.381 462.049C105.284 450.213 105.165 447.994 102.073 444.172C100.051 441.829 94.5799 441.336 91.1307 443.309C86.849 445.775 84.2323 460.693 83.1619 490.16C81.7346 529.983 88.5141 565.984 102.43 592.122C104.69 596.438 106.593 600.26 106.593 600.506C106.593 601.986 77.9286 600.876 71.0302 599.273C46.7669 593.232 26.9043 572.272 21.3142 546.628C18.4597 533.559 18.4597 475.488 21.3142 450.706C25.9528 410.76 34.1595 371.43 44.745 339.25C49.2646 325.318 49.3836 321.003 45.2207 317.674C37.014 311.017 32.6133 316.195 25.3581 340.977C8.94469 397.444 0.737976 451.816 0.737976 502.982C0.856914 552.669 6.56593 572.642 26.9043 593.725C37.133 604.328 47.2427 610.863 60.8016 615.671L70.3166 619H296.893H523.47L531.201 615.178C540.716 610.493 548.922 602.232 553.442 592.739C556.416 586.451 556.772 584.108 557.129 571.533C557.605 553.902 554.988 535.285 551.539 531.709C548.566 528.504 542.738 528.504 539.407 531.586C537.148 533.682 537.029 534.792 537.623 541.326C537.98 545.395 538.694 555.628 539.051 564.135C539.883 581.643 538.813 585.588 530.963 593.355C524.659 599.643 518.95 601.123 500.158 601.123H483.626L485.885 595.081C491.594 580.163 494.092 552.792 491.594 531.586C489.929 518.394 483.269 513.462 475.776 520.12L472.564 522.956L473.992 537.504C476.251 559.697 473.516 580.41 466.38 594.835L463.406 601.123H450.323H437.24V562.286V523.325L434.266 520.366C430.579 516.421 426.06 516.421 422.373 520.366L419.399 523.325V562.286V601.123H406.316H393.233L390.735 595.944C383.123 580.41 380.269 560.806 382.528 538.737C383.718 526.161 383.718 524.188 382.053 521.599C378.604 516.174 370.991 516.051 367.661 521.353C365.282 525.175 363.142 549.217 364.093 561.669C365.045 573.752 367.542 586.821 370.754 595.205L373.013 601.123H356.481C337.689 601.123 331.98 599.643 325.676 593.355C318.778 586.451 316.875 581.273 316.994 568.82C317.232 538.737 326.747 506.434 342.327 483.132C348.75 473.515 360.763 460.077 366.234 456.255C369.207 454.282 369.445 454.282 375.63 459.09C389.784 470.187 409.052 478.57 426.773 481.529C432.601 482.516 441.997 482.886 452.345 482.392C469.71 481.776 481.366 479.064 496.233 472.283L503.012 469.2L505.986 471.913C509.911 475.735 520.853 493.119 524.421 501.01C528.465 509.887 530.844 512.352 535.483 512.352C539.764 512.352 544.284 507.791 544.284 503.352C544.284 499.653 532.866 477.831 525.73 467.967L519.307 459.09L529.773 448.487C548.685 429.007 558.794 409.527 564.979 380.183C565.455 377.841 567.596 375.868 572.472 373.032C590.789 362.306 603.753 342.086 608.035 317.551C612.078 294.126 609.581 283.892 597.568 275.509C576.992 260.96 552.134 255.782 530.963 261.33L523.113 263.426L516.69 258.494C498.017 243.699 469.234 234.452 444.019 235.069L432.363 235.439L429.033 231.123C425.703 227.055 425.584 226.438 424.989 208.438C424.276 187.478 422.492 178.478 416.069 164.792C408.1 147.778 394.065 136.312 375.749 131.873C360.525 128.175 332.575 131.134 313.663 138.408C311.523 139.271 308.787 138.408 300.58 134.216C278.815 122.873 261.331 118.681 233.618 118.435L212.566 118.188L205.073 112.393C195.677 104.996 181.167 97.7215 169.63 94.3926C159.639 91.5569 141.204 90.324 131.926 91.8035ZM165.229 112.27C172.246 114.119 190.206 122.75 189.254 123.736C189.017 123.983 185.211 125.585 180.929 127.065C160.234 134.586 141.085 147.655 122.649 166.765C110.161 179.711 92.558 202.273 80.6642 220.397C71.2681 234.699 69.1272 236.302 60.8016 233.836C51.1676 231.123 43.5556 221.013 41.7715 208.931C39.3928 192.41 53.1896 165.409 74.8363 144.079C94.6989 124.599 114.324 113.503 135.732 109.927C141.798 108.941 157.974 110.174 165.229 112.27ZM374.916 150.49C393.471 156.162 405.483 175.395 407.149 202.15C407.862 212.63 407.743 213.123 405.602 212.26C395.493 208.191 385.026 205.232 377.89 204.616C370.278 203.876 369.088 203.383 367.304 200.547C357.789 184.396 350.653 174.656 341.257 164.792C335.191 158.381 330.315 152.956 330.553 152.833C330.79 152.586 334.121 151.6 338.046 150.614C347.561 148.271 367.423 148.148 374.916 150.49ZM391.33 226.685C399.18 229.767 412.977 238.398 411.787 239.631C411.43 239.877 406.911 241.973 401.796 244.069C383.718 251.713 367.067 264.412 353.864 280.933L348.155 287.961L346.252 281.55C341.852 265.892 345.182 247.028 355.53 228.904L359.336 222.37L371.229 222.986C380.031 223.356 385.264 224.342 391.33 226.685ZM471.732 256.645C489.335 261.207 509.554 273.782 521.21 287.098C539.526 308.058 548.328 331.976 548.209 360.087C548.09 378.457 545.473 389.8 537.148 407.184C524.897 432.952 500.039 453.912 473.04 461.186C452.94 466.611 433.553 465.995 414.642 459.337C366.591 442.569 336.856 391.033 346.133 340.73C354.459 296.098 387.167 262.933 430.936 254.672C439.143 253.069 462.693 254.179 471.732 256.645ZM565.693 280.194C573.067 282.29 582.463 286.851 588.053 291.29C591.621 294.002 591.859 294.742 591.859 301.277C591.74 318.907 585.08 336.908 574.256 348.251L567.715 355.155L566.882 351.456C566.406 349.36 565.336 343.442 564.622 338.141C562.006 320.757 553.442 299.797 542.976 285.372L538.218 278.714L542.738 277.974C548.685 276.988 557.486 277.851 565.693 280.194Z" fill="white"/>
<path d="M383.956 314.715C381.22 317.181 377.771 328.154 377.771 334.442C377.771 342.209 386.216 346.278 391.806 341.223C394.303 339.127 397.99 326.921 397.99 321.003C397.99 317.181 393.352 312.619 389.427 312.619C387.762 312.619 385.264 313.606 383.956 314.715Z" fill="white"/>
<path d="M512.527 347.758C509.435 349.114 508.484 350.593 506.818 356.635C505.748 360.58 504.559 364.772 504.321 366.005C502.418 372.539 509.911 379.32 516.215 376.855C519.664 375.375 521.567 371.676 524.183 360.95C525.611 355.032 525.492 354.292 523.351 351.21C520.14 346.895 516.928 345.785 512.527 347.758Z" fill="white"/>
<path d="M410.717 354.785C409.646 355.648 408.219 357.991 407.505 359.84C401.796 375.992 418.686 394.855 435.099 390.54C439.738 389.307 440.451 389.43 443.187 392.143C455.794 404.595 477.679 398.677 482.555 381.54C483.864 377.224 483.745 376.238 481.604 373.279C477.322 367.361 468.996 368.101 466.38 374.759C462.693 383.882 453.891 381.663 453.891 371.676C453.891 360.087 441.046 356.758 436.764 367.361C434.742 372.539 431.055 374.019 427.13 371.306C424.751 369.704 424.157 368.224 424.157 363.786C424.157 359.84 423.443 357.498 421.778 355.772C419.042 352.936 413.69 352.566 410.717 354.785Z" fill="white"/>
<path d="M156.903 204.369C154.049 205.849 152.74 208.684 150.124 219.287C147.626 229.891 150.124 234.945 157.736 234.945C163.326 234.945 165.348 232.603 167.727 223.109C170.462 212.136 170.224 208.438 166.537 205.479C163.088 202.643 160.828 202.396 156.903 204.369Z" fill="white"/>
<path d="M209.712 237.658C203.527 242.713 206.5 254.549 214.112 254.672C216.015 254.672 216.134 255.289 215.421 259.234C214.231 266.508 211.853 269.467 207.214 269.467C201.862 269.467 199.364 266.262 199.364 259.357C199.364 252.7 195.796 248.508 190.206 248.508C184.616 248.508 181.523 253.193 181.523 261.7C181.523 272.426 186.4 280.564 196.034 285.618C200.791 288.084 210.306 288.701 215.183 286.851C217.562 285.865 218.632 286.235 220.892 288.824C231.358 300.414 251.578 298.934 260.379 285.988C262.163 283.276 263.947 279.084 264.304 276.618C264.899 272.796 264.542 271.563 261.925 268.851C257.168 263.919 252.292 264.905 247.534 271.933C244.442 276.495 243.014 277.604 239.446 277.851C233.499 278.344 230.645 274.152 232.191 266.632C233.261 261.453 233.261 261.453 238.852 261.083C243.252 260.837 245.036 259.974 246.939 257.508C252.886 249.617 248.367 244.932 230.288 239.877C215.064 235.809 212.566 235.439 209.712 237.658Z" fill="white"/>
<path d="M296.061 243.823C294.633 245.425 292.73 250.727 291.422 256.275C289.4 265.645 289.4 265.892 291.779 269.221C293.325 271.317 295.466 272.673 297.845 272.919C303.554 273.536 306.884 269.221 309.501 258.001C311.641 248.631 311.523 248.384 309.144 245.055C305.932 240.494 299.629 239.877 296.061 243.823Z" fill="white"/>
</svg>
