<svg width="69" height="69" viewBox="0 0 69 69" fill="none" xmlns="http://www.w3.org/2000/svg">
<path d="M17.9366 3.94772C21.726 2.91457 29.559 2.37903 34.6399 8.50202C38.26 5.06522 49.1202 -1.42887 59.4089 7.55321C68.0464 17.1468 74.842 42.09 34.6399 66C16.9204 58.789 -12.1674 25.0113 11.7126 6.92067" stroke="#FFC000" stroke-width="5" stroke-linecap="round"/>
<path d="M45.7814 24.8574C45.2005 26.5186 44.1828 27.7916 43.0733 28.5321C41.9646 29.272 40.8507 29.4378 39.926 29.1171C39.0014 28.7964 38.2319 27.9773 37.8245 26.7116C37.4169 25.4449 37.4133 23.8176 37.9942 22.1564C38.575 20.4952 39.5928 19.2222 40.7022 18.4817C41.8109 17.7418 42.9248 17.576 43.8495 17.8967C44.7741 18.2174 45.5437 19.0366 45.951 20.3023C46.3586 21.569 46.3622 23.1962 45.7814 24.8574Z" stroke="#FFC000" stroke-width="3"/>
<path d="M33.52 22.3083C33.9309 24.0188 33.7638 25.6374 33.2309 26.857C32.6985 28.0757 31.8504 28.8142 30.8978 29.0412C29.9451 29.2682 28.8533 28.992 27.8247 28.1453C26.7953 27.298 25.9107 25.93 25.4998 24.2195C25.0889 22.509 25.256 20.8904 25.7888 19.6708C26.3213 18.4521 27.1693 17.7136 28.122 17.4866C29.0746 17.2596 30.1665 17.5358 31.1951 18.3825C32.2245 19.2298 33.1091 20.5978 33.52 22.3083Z" stroke="#FFC000" stroke-width="3"/>
<path d="M24.8202 31.2333C25.5036 32.3429 25.7498 33.5088 25.6568 34.4616C25.5638 35.4132 25.1541 36.0605 24.6084 36.394C24.0626 36.7274 23.2976 36.7978 22.4037 36.4491C21.5087 36.1 20.5768 35.3531 19.8933 34.2434C19.2099 33.1337 18.9637 31.9679 19.0567 31.0151C19.1497 30.0634 19.5594 29.4162 20.1051 29.0827C20.6509 28.7493 21.4159 28.6788 22.3098 29.0276C23.2048 29.3767 24.1367 30.1236 24.8202 31.2333Z" stroke="#FFC000" stroke-width="3"/>
<path d="M50.2839 35.1579C49.4208 36.1364 48.3746 36.7151 47.4328 36.9079C46.4922 37.1005 45.7509 36.9015 45.2708 36.4815C44.7908 36.0614 44.4971 35.3549 44.5678 34.4011C44.6385 33.4461 45.08 32.3383 45.9431 31.3598C46.8062 30.3813 47.8524 29.8025 48.7941 29.6097C49.7348 29.4171 50.476 29.6161 50.9561 30.0362C51.4362 30.4562 51.7298 31.1627 51.6592 32.1166C51.5885 33.0715 51.147 34.1794 50.2839 35.1579Z" stroke="#FFC000" stroke-width="3"/>
<path d="M39.7726 49.2388C37.8556 49.7459 35.6561 48.4786 34.7034 48.4786C33.7508 48.4786 32.1111 49.6852 30.373 49.555C28.1267 49.3868 27.0093 49.2454 25.2922 46.8351C23.4847 44.298 23.9259 41.9612 26.2449 39.8771C26.9554 39.2386 28.5408 38.8481 29.051 38.0417C29.6592 37.0803 29.6009 35.5126 29.9285 34.374C30.0403 33.9854 30.2282 33.6522 30.4676 33.3667C32.6285 30.7901 37.5509 30.7707 39.5734 33.4573C39.8003 33.7588 39.9835 34.0719 40.1537 34.374C40.8661 35.6388 40.4052 37.434 40.7369 38.0417C41.1343 38.7696 41.6054 38.5742 42.3247 38.9905C47.0245 41.7104 43.8489 46.3912 43.8489 46.3912" stroke="#FFC000" stroke-width="3" stroke-linecap="round"/>
</svg>
